<svg xmlns="http://www.w3.org/2000/svg" viewBox="20 30 200 190"><g>
  <!-- ears -->
  <path d="M52 60 L44 24 Q66 30 78 58 Z" fill="#5b636b"/>
  <path d="M188 60 L196 24 Q174 30 162 58 Z" fill="#5b636b"/>
  <path d="M55 58 L50 34 Q64 40 74 58 Z" fill="#7c858e"/>
  <path d="M185 58 L190 34 Q176 40 166 58 Z" fill="#7c858e"/>
  <!-- head -->
  <path d="M120 40 C168 40 190 74 190 118 C190 150 176 168 158 178
           L82 178 C64 168 50 150 50 118 C50 74 72 40 120 40 Z" fill="#7c858e"/>
  <!-- crown shading -->
  <path d="M120 40 C168 40 190 74 190 112 C176 96 150 88 120 88
           C90 88 64 96 50 112 C50 74 72 40 120 40 Z" fill="#5b636b"/>
  <circle cx="174.7" cy="140.3" r="0.9" fill="#a7afb6" opacity="0.55"/><circle cx="103.3" cy="70.2" r="1.9" fill="#e9ecee" opacity="0.55"/><circle cx="90.2" cy="74.1" r="0.8" fill="#5b636b" opacity="0.55"/><circle cx="79.0" cy="93.8" r="1.3" fill="#5b636b" opacity="0.55"/><circle cx="163.2" cy="100.8" r="1.3" fill="#e9ecee" opacity="0.55"/><circle cx="120.2" cy="136.1" r="1.9" fill="#e9ecee" opacity="0.55"/><circle cx="115.8" cy="83.7" r="1.3" fill="#5b636b" opacity="0.55"/><circle cx="79.7" cy="71.0" r="1.1" fill="#a7afb6" opacity="0.55"/><circle cx="99.0" cy="67.3" r="1.5" fill="#5b636b" opacity="0.55"/><circle cx="140.9" cy="71.4" r="2.0" fill="#e9ecee" opacity="0.55"/><circle cx="148.1" cy="136.6" r="1.8" fill="#5b636b" opacity="0.55"/><circle cx="102.5" cy="143.3" r="2.1" fill="#a7afb6" opacity="0.55"/><circle cx="174.6" cy="91.0" r="1.8" fill="#5b636b" opacity="0.55"/><circle cx="123.6" cy="99.1" r="2.0" fill="#5b636b" opacity="0.55"/><circle cx="121.8" cy="126.7" r="1.7" fill="#e9ecee" opacity="0.55"/><circle cx="168.0" cy="96.5" r="1.5" fill="#5b636b" opacity="0.55"/><circle cx="146.9" cy="98.8" r="1.1" fill="#e9ecee" opacity="0.55"/><circle cx="157.8" cy="130.2" r="1.9" fill="#5b636b" opacity="0.55"/><circle cx="92.2" cy="137.0" r="1.2" fill="#5b636b" opacity="0.55"/><circle cx="159.7" cy="105.6" r="1.5" fill="#5b636b" opacity="0.55"/><circle cx="130.6" cy="83.1" r="1.1" fill="#5b636b" opacity="0.55"/><circle cx="104.0" cy="116.6" r="1.9" fill="#e9ecee" opacity="0.55"/><circle cx="147.1" cy="136.7" r="1.0" fill="#5b636b" opacity="0.55"/><circle cx="72.7" cy="106.7" r="0.9" fill="#5b636b" opacity="0.55"/><circle cx="87.2" cy="133.8" r="0.9" fill="#5b636b" opacity="0.55"/><circle cx="76.4" cy="78.9" r="1.9" fill="#a7afb6" opacity="0.55"/><circle cx="110.8" cy="119.5" r="0.8" fill="#e9ecee" opacity="0.55"/><circle cx="103.2" cy="77.5" r="0.8" fill="#a7afb6" opacity="0.55"/><circle cx="174.5" cy="57.3" r="1.7" fill="#a7afb6" opacity="0.55"/><circle cx="104.8" cy="66.5" r="2.0" fill="#5b636b" opacity="0.55"/><circle cx="82.0" cy="117.2" r="1.3" fill="#a7afb6" opacity="0.55"/><circle cx="155.3" cy="77.3" r="2.1" fill="#a7afb6" opacity="0.55"/><circle cx="101.3" cy="110.4" r="1.8" fill="#a7afb6" opacity="0.55"/><circle cx="94.3" cy="99.0" r="1.2" fill="#5b636b" opacity="0.55"/><circle cx="151.9" cy="121.6" r="2.0" fill="#e9ecee" opacity="0.55"/><circle cx="163.5" cy="118.5" r="1.4" fill="#a7afb6" opacity="0.55"/><circle cx="71.2" cy="116.9" r="1.9" fill="#a7afb6" opacity="0.55"/><circle cx="113.7" cy="133.7" r="1.0" fill="#5b636b" opacity="0.55"/><circle cx="153.7" cy="98.8" r="1.2" fill="#e9ecee" opacity="0.55"/><circle cx="91.1" cy="109.5" r="1.3" fill="#a7afb6" opacity="0.55"/><circle cx="143.9" cy="141.3" r="1.7" fill="#e9ecee" opacity="0.55"/><circle cx="64.0" cy="69.5" r="0.9" fill="#5b636b" opacity="0.55"/><circle cx="87.8" cy="137.5" r="1.7" fill="#a7afb6" opacity="0.55"/><circle cx="179.3" cy="75.9" r="1.4" fill="#e9ecee" opacity="0.55"/><circle cx="69.7" cy="75.5" r="1.8" fill="#5b636b" opacity="0.55"/><circle cx="145.1" cy="78.1" r="1.3" fill="#5b636b" opacity="0.55"/><circle cx="150.1" cy="68.6" r="1.3" fill="#a7afb6" opacity="0.55"/><circle cx="73.3" cy="120.1" r="1.1" fill="#a7afb6" opacity="0.55"/><circle cx="62.4" cy="122.6" r="0.9" fill="#a7afb6" opacity="0.55"/><circle cx="122.5" cy="96.8" r="1.2" fill="#5b636b" opacity="0.55"/><circle cx="105.6" cy="116.6" r="1.8" fill="#a7afb6" opacity="0.55"/><circle cx="147.5" cy="94.0" r="1.5" fill="#5b636b" opacity="0.55"/><circle cx="131.0" cy="134.3" r="2.0" fill="#5b636b" opacity="0.55"/><circle cx="81.7" cy="63.4" r="1.8" fill="#e9ecee" opacity="0.55"/><circle cx="62.3" cy="141.5" r="1.0" fill="#e9ecee" opacity="0.55"/><circle cx="94.7" cy="143.5" r="1.3" fill="#a7afb6" opacity="0.55"/><circle cx="164.9" cy="92.1" r="0.9" fill="#a7afb6" opacity="0.55"/><circle cx="160.9" cy="115.5" r="0.8" fill="#e9ecee" opacity="0.55"/><circle cx="67.2" cy="112.4" r="1.4" fill="#5b636b" opacity="0.55"/><circle cx="133.6" cy="55.5" r="0.8" fill="#e9ecee" opacity="0.55"/><circle cx="172.2" cy="61.9" r="1.8" fill="#a7afb6" opacity="0.55"/><circle cx="73.9" cy="88.6" r="1.7" fill="#a7afb6" opacity="0.55"/><circle cx="150.4" cy="90.6" r="1.0" fill="#a7afb6" opacity="0.55"/><circle cx="74.8" cy="110.5" r="1.2" fill="#e9ecee" opacity="0.55"/><circle cx="175.2" cy="117.3" r="0.8" fill="#5b636b" opacity="0.55"/><circle cx="116.4" cy="58.9" r="1.7" fill="#e9ecee" opacity="0.55"/><circle cx="102.9" cy="96.1" r="1.8" fill="#e9ecee" opacity="0.55"/><circle cx="118.1" cy="132.9" r="1.7" fill="#5b636b" opacity="0.55"/><circle cx="156.5" cy="138.9" r="1.9" fill="#e9ecee" opacity="0.55"/><circle cx="107.4" cy="69.1" r="1.6" fill="#5b636b" opacity="0.55"/><circle cx="111.3" cy="116.1" r="2.0" fill="#5b636b" opacity="0.55"/><circle cx="147.3" cy="106.8" r="0.9" fill="#a7afb6" opacity="0.55"/><circle cx="179.7" cy="68.2" r="1.3" fill="#a7afb6" opacity="0.55"/><circle cx="155.8" cy="137.0" r="1.7" fill="#5b636b" opacity="0.55"/><circle cx="64.5" cy="142.7" r="1.3" fill="#5b636b" opacity="0.55"/><circle cx="140.5" cy="116.3" r="1.4" fill="#5b636b" opacity="0.55"/><circle cx="94.4" cy="69.0" r="2.1" fill="#e9ecee" opacity="0.55"/><circle cx="71.5" cy="101.5" r="1.7" fill="#e9ecee" opacity="0.55"/><circle cx="80.3" cy="69.2" r="2.0" fill="#a7afb6" opacity="0.55"/><circle cx="108.5" cy="144.6" r="1.8" fill="#5b636b" opacity="0.55"/><circle cx="147.5" cy="97.0" r="1.7" fill="#5b636b" opacity="0.55"/><circle cx="106.0" cy="121.3" r="1.3" fill="#a7afb6" opacity="0.55"/><circle cx="117.9" cy="91.4" r="1.7" fill="#e9ecee" opacity="0.55"/><circle cx="144.6" cy="97.5" r="2.1" fill="#e9ecee" opacity="0.55"/><circle cx="145.6" cy="137.1" r="0.9" fill="#5b636b" opacity="0.55"/><circle cx="87.0" cy="110.9" r="1.3" fill="#5b636b" opacity="0.55"/><circle cx="105.9" cy="134.3" r="2.0" fill="#e9ecee" opacity="0.55"/><circle cx="115.7" cy="119.0" r="1.9" fill="#5b636b" opacity="0.55"/><circle cx="81.3" cy="63.5" r="1.3" fill="#a7afb6" opacity="0.55"/><circle cx="147.5" cy="109.6" r="2.0" fill="#a7afb6" opacity="0.55"/>
  <!-- eyebrows (bushy, signature) -->
  <path d="M70 104 Q86 84 108 100 Q90 100 78 112 Z" fill="#c3cace"/>
  <path d="M170 104 Q154 84 132 100 Q150 100 162 112 Z" fill="#c3cace"/>
  <!-- eyes -->
  <circle cx="94" cy="108" r="7.5" fill="#23282d"/>
  <circle cx="146" cy="108" r="7.5" fill="#23282d"/>
  <circle cx="96.4" cy="105.6" r="2.2" fill="#ffffff"/>
  <circle cx="148.4" cy="105.6" r="2.2" fill="#ffffff"/>
  <!-- muzzle bridge -->
  <path d="M104 120 L136 120 L132 150 L108 150 Z" fill="#a7afb6"/>
  <!-- beard (signature) -->
  <path d="M78 140 Q120 132 162 140 Q170 186 150 210 Q120 226 90 210 Q70 186 78 140 Z" fill="#e9ecee"/>
  <path d="M96 150 Q120 146 144 150 Q150 180 138 198 Q120 210 102 198 Q90 180 96 150 Z" fill="#a7afb6" opacity="0.5"/>
  <circle cx="117.1" cy="170.4" r="1.0" fill="#7c858e" opacity="0.55"/><circle cx="107.4" cy="175.8" r="1.6" fill="#5b636b" opacity="0.55"/><circle cx="124.2" cy="185.0" r="0.9" fill="#5b636b" opacity="0.55"/><circle cx="94.2" cy="204.8" r="2.0" fill="#5b636b" opacity="0.55"/><circle cx="93.3" cy="162.3" r="0.9" fill="#7c858e" opacity="0.55"/><circle cx="141.4" cy="171.0" r="1.8" fill="#7c858e" opacity="0.55"/><circle cx="152.7" cy="160.3" r="1.1" fill="#5b636b" opacity="0.55"/><circle cx="150.4" cy="194.4" r="2.0" fill="#5b636b" opacity="0.55"/><circle cx="102.9" cy="196.6" r="1.1" fill="#7c858e" opacity="0.55"/><circle cx="149.6" cy="151.3" r="1.3" fill="#5b636b" opacity="0.55"/><circle cx="91.9" cy="162.2" r="1.8" fill="#7c858e" opacity="0.55"/><circle cx="156.2" cy="148.2" r="1.8" fill="#7c858e" opacity="0.55"/><circle cx="150.8" cy="160.2" r="0.8" fill="#7c858e" opacity="0.55"/><circle cx="91.4" cy="203.1" r="1.5" fill="#5b636b" opacity="0.55"/><circle cx="122.9" cy="159.9" r="0.9" fill="#7c858e" opacity="0.55"/><circle cx="130.8" cy="153.6" r="1.6" fill="#7c858e" opacity="0.55"/><circle cx="154.3" cy="191.2" r="0.9" fill="#5b636b" opacity="0.55"/><circle cx="124.3" cy="184.4" r="1.0" fill="#5b636b" opacity="0.55"/><circle cx="138.5" cy="182.5" r="0.8" fill="#5b636b" opacity="0.55"/><circle cx="155.2" cy="162.2" r="1.6" fill="#7c858e" opacity="0.55"/><circle cx="138.4" cy="198.7" r="1.5" fill="#7c858e" opacity="0.55"/><circle cx="148.7" cy="154.6" r="1.9" fill="#5b636b" opacity="0.55"/><circle cx="116.2" cy="172.1" r="2.1" fill="#7c858e" opacity="0.55"/><circle cx="110.6" cy="184.5" r="0.8" fill="#7c858e" opacity="0.55"/><circle cx="97.6" cy="174.6" r="1.2" fill="#7c858e" opacity="0.55"/><circle cx="105.0" cy="165.1" r="1.5" fill="#7c858e" opacity="0.55"/><circle cx="83.0" cy="194.8" r="1.8" fill="#5b636b" opacity="0.55"/><circle cx="108.0" cy="194.7" r="1.5" fill="#7c858e" opacity="0.55"/><circle cx="114.2" cy="161.9" r="2.1" fill="#5b636b" opacity="0.55"/><circle cx="120.8" cy="205.4" r="1.5" fill="#7c858e" opacity="0.55"/><circle cx="133.1" cy="158.3" r="1.9" fill="#5b636b" opacity="0.55"/><circle cx="83.3" cy="204.4" r="1.9" fill="#5b636b" opacity="0.55"/><circle cx="154.8" cy="207.2" r="1.6" fill="#7c858e" opacity="0.55"/><circle cx="84.8" cy="175.0" r="1.8" fill="#5b636b" opacity="0.55"/><circle cx="128.7" cy="206.0" r="1.3" fill="#7c858e" opacity="0.55"/><circle cx="118.5" cy="164.7" r="2.1" fill="#5b636b" opacity="0.55"/><circle cx="135.3" cy="151.9" r="1.4" fill="#5b636b" opacity="0.55"/><circle cx="126.9" cy="196.2" r="1.7" fill="#5b636b" opacity="0.55"/><circle cx="141.2" cy="200.8" r="1.4" fill="#7c858e" opacity="0.55"/><circle cx="153.0" cy="164.6" r="1.0" fill="#7c858e" opacity="0.55"/>
  <!-- nose -->
  <path d="M108 138 Q120 132 132 138 Q134 150 120 154 Q106 150 108 138 Z" fill="#1c1f23"/>
  <ellipse cx="114" cy="143" rx="2.4" ry="1.6" fill="#3a3f45"/>
  <ellipse cx="126" cy="143" rx="2.4" ry="1.6" fill="#3a3f45"/>
  <!-- mouth hint -->
  <path d="M120 154 L120 164 M120 164 Q110 170 102 166 M120 164 Q130 170 138 166" stroke="#23282d" stroke-width="1.6" fill="none" stroke-linecap="round" opacity="0.6"/>
</g></svg>