<svg xmlns="http://www.w3.org/2000/svg" viewBox="0 0 480 220" role="img" aria-label="Three recognized Miniature Schnauzer coat colors: salt and pepper, black and silver, and solid black"><title>Recognized Miniature Schnauzer coat colors</title><rect width="480" height="220" rx="16" fill="#f0f4f4"/><g transform="translate(20,6) scale(0.5)"><g>
  <!-- ears -->
  <path d="M52 60 L44 24 Q66 30 78 58 Z" fill="#5b636b"/>
  <path d="M188 60 L196 24 Q174 30 162 58 Z" fill="#5b636b"/>
  <path d="M55 58 L50 34 Q64 40 74 58 Z" fill="#7c858e"/>
  <path d="M185 58 L190 34 Q176 40 166 58 Z" fill="#7c858e"/>
  <!-- head -->
  <path d="M120 40 C168 40 190 74 190 118 C190 150 176 168 158 178
           L82 178 C64 168 50 150 50 118 C50 74 72 40 120 40 Z" fill="#7c858e"/>
  <!-- crown shading -->
  <path d="M120 40 C168 40 190 74 190 112 C176 96 150 88 120 88
           C90 88 64 96 50 112 C50 74 72 40 120 40 Z" fill="#5b636b"/>
  <circle cx="88.6" cy="104.0" r="1.3" fill="#5b636b" opacity="0.55"/><circle cx="116.9" cy="107.3" r="1.6" fill="#e9ecee" opacity="0.55"/><circle cx="91.1" cy="76.1" r="2.1" fill="#e9ecee" opacity="0.55"/><circle cx="124.9" cy="104.5" r="1.3" fill="#a7afb6" opacity="0.55"/><circle cx="87.8" cy="68.6" r="2.0" fill="#e9ecee" opacity="0.55"/><circle cx="149.0" cy="115.4" r="0.9" fill="#5b636b" opacity="0.55"/><circle cx="65.1" cy="125.2" r="1.9" fill="#e9ecee" opacity="0.55"/><circle cx="116.7" cy="119.7" r="1.9" fill="#5b636b" opacity="0.55"/><circle cx="154.6" cy="93.4" r="1.7" fill="#5b636b" opacity="0.55"/><circle cx="113.4" cy="139.2" r="1.9" fill="#a7afb6" opacity="0.55"/><circle cx="64.3" cy="99.5" r="1.1" fill="#5b636b" opacity="0.55"/><circle cx="112.3" cy="111.4" r="1.2" fill="#5b636b" opacity="0.55"/><circle cx="160.0" cy="106.7" r="1.5" fill="#e9ecee" opacity="0.55"/><circle cx="130.1" cy="136.4" r="1.7" fill="#a7afb6" opacity="0.55"/><circle cx="162.8" cy="144.2" r="1.7" fill="#a7afb6" opacity="0.55"/><circle cx="143.8" cy="84.4" r="1.5" fill="#5b636b" opacity="0.55"/><circle cx="128.3" cy="119.2" r="1.1" fill="#5b636b" opacity="0.55"/><circle cx="92.1" cy="66.2" r="1.4" fill="#5b636b" opacity="0.55"/><circle cx="178.8" cy="63.0" r="1.8" fill="#e9ecee" opacity="0.55"/><circle cx="167.7" cy="56.8" r="1.4" fill="#e9ecee" opacity="0.55"/><circle cx="164.7" cy="59.0" r="1.6" fill="#a7afb6" opacity="0.55"/><circle cx="105.3" cy="107.8" r="1.5" fill="#e9ecee" opacity="0.55"/><circle cx="120.7" cy="144.9" r="1.2" fill="#a7afb6" opacity="0.55"/><circle cx="73.0" cy="103.2" r="2.0" fill="#e9ecee" opacity="0.55"/><circle cx="95.0" cy="78.7" r="1.7" fill="#e9ecee" opacity="0.55"/><circle cx="97.7" cy="141.3" r="2.0" fill="#e9ecee" opacity="0.55"/><circle cx="105.2" cy="133.3" r="1.3" fill="#5b636b" opacity="0.55"/><circle cx="141.7" cy="64.2" r="2.1" fill="#5b636b" opacity="0.55"/><circle cx="92.6" cy="112.1" r="1.7" fill="#e9ecee" opacity="0.55"/><circle cx="112.5" cy="78.2" r="1.2" fill="#e9ecee" opacity="0.55"/><circle cx="61.4" cy="92.4" r="1.6" fill="#a7afb6" opacity="0.55"/><circle cx="105.2" cy="108.0" r="1.0" fill="#5b636b" opacity="0.55"/><circle cx="135.3" cy="97.0" r="1.7" fill="#e9ecee" opacity="0.55"/><circle cx="133.1" cy="80.1" r="1.4" fill="#5b636b" opacity="0.55"/><circle cx="67.3" cy="115.8" r="2.1" fill="#e9ecee" opacity="0.55"/><circle cx="135.4" cy="81.9" r="1.6" fill="#a7afb6" opacity="0.55"/><circle cx="103.7" cy="83.1" r="1.3" fill="#5b636b" opacity="0.55"/><circle cx="91.7" cy="125.9" r="0.9" fill="#a7afb6" opacity="0.55"/><circle cx="176.6" cy="116.5" r="1.0" fill="#5b636b" opacity="0.55"/><circle cx="86.7" cy="127.3" r="1.1" fill="#a7afb6" opacity="0.55"/><circle cx="141.4" cy="113.5" r="0.9" fill="#5b636b" opacity="0.55"/><circle cx="98.6" cy="85.0" r="1.9" fill="#e9ecee" opacity="0.55"/><circle cx="157.2" cy="141.5" r="0.9" fill="#5b636b" opacity="0.55"/><circle cx="138.0" cy="134.6" r="1.4" fill="#a7afb6" opacity="0.55"/><circle cx="154.4" cy="58.1" r="2.0" fill="#e9ecee" opacity="0.55"/><circle cx="156.8" cy="130.5" r="1.0" fill="#e9ecee" opacity="0.55"/><circle cx="100.8" cy="129.5" r="0.9" fill="#5b636b" opacity="0.55"/><circle cx="101.4" cy="66.7" r="1.2" fill="#e9ecee" opacity="0.55"/><circle cx="115.8" cy="112.1" r="1.2" fill="#5b636b" opacity="0.55"/><circle cx="109.1" cy="137.9" r="1.0" fill="#a7afb6" opacity="0.55"/><circle cx="117.3" cy="129.9" r="1.6" fill="#5b636b" opacity="0.55"/><circle cx="112.1" cy="140.5" r="2.0" fill="#a7afb6" opacity="0.55"/><circle cx="63.9" cy="96.1" r="1.8" fill="#5b636b" opacity="0.55"/><circle cx="122.3" cy="81.0" r="1.2" fill="#a7afb6" opacity="0.55"/><circle cx="163.4" cy="132.2" r="2.1" fill="#a7afb6" opacity="0.55"/><circle cx="157.2" cy="59.1" r="2.0" fill="#5b636b" opacity="0.55"/><circle cx="121.5" cy="72.9" r="1.9" fill="#e9ecee" opacity="0.55"/><circle cx="129.2" cy="56.2" r="1.8" fill="#a7afb6" opacity="0.55"/><circle cx="120.4" cy="76.5" r="0.8" fill="#5b636b" opacity="0.55"/><circle cx="109.7" cy="139.5" r="1.6" fill="#e9ecee" opacity="0.55"/><circle cx="75.0" cy="142.5" r="1.5" fill="#a7afb6" opacity="0.55"/><circle cx="102.2" cy="72.8" r="1.5" fill="#a7afb6" opacity="0.55"/><circle cx="80.6" cy="126.3" r="2.0" fill="#a7afb6" opacity="0.55"/><circle cx="158.8" cy="55.7" r="1.6" fill="#e9ecee" opacity="0.55"/><circle cx="66.0" cy="79.4" r="1.1" fill="#5b636b" opacity="0.55"/><circle cx="122.4" cy="59.6" r="1.2" fill="#a7afb6" opacity="0.55"/><circle cx="162.8" cy="124.8" r="0.9" fill="#a7afb6" opacity="0.55"/><circle cx="68.2" cy="142.7" r="1.9" fill="#a7afb6" opacity="0.55"/><circle cx="121.8" cy="99.1" r="1.0" fill="#a7afb6" opacity="0.55"/><circle cx="102.2" cy="113.2" r="1.6" fill="#e9ecee" opacity="0.55"/><circle cx="91.8" cy="143.9" r="1.4" fill="#a7afb6" opacity="0.55"/><circle cx="126.7" cy="119.4" r="1.3" fill="#a7afb6" opacity="0.55"/><circle cx="128.0" cy="58.9" r="1.4" fill="#5b636b" opacity="0.55"/><circle cx="153.9" cy="89.2" r="1.8" fill="#5b636b" opacity="0.55"/><circle cx="166.4" cy="59.8" r="1.6" fill="#5b636b" opacity="0.55"/><circle cx="97.8" cy="140.5" r="1.3" fill="#a7afb6" opacity="0.55"/><circle cx="89.4" cy="103.2" r="1.7" fill="#a7afb6" opacity="0.55"/><circle cx="156.4" cy="75.2" r="1.0" fill="#a7afb6" opacity="0.55"/><circle cx="172.4" cy="88.7" r="2.0" fill="#e9ecee" opacity="0.55"/><circle cx="74.6" cy="117.1" r="2.0" fill="#5b636b" opacity="0.55"/><circle cx="139.5" cy="134.9" r="1.8" fill="#5b636b" opacity="0.55"/><circle cx="73.0" cy="83.7" r="1.5" fill="#5b636b" opacity="0.55"/><circle cx="146.0" cy="97.6" r="1.1" fill="#e9ecee" opacity="0.55"/><circle cx="65.3" cy="63.3" r="0.9" fill="#e9ecee" opacity="0.55"/><circle cx="81.5" cy="57.1" r="1.9" fill="#a7afb6" opacity="0.55"/><circle cx="63.1" cy="65.4" r="1.4" fill="#5b636b" opacity="0.55"/><circle cx="174.3" cy="107.1" r="1.8" fill="#a7afb6" opacity="0.55"/><circle cx="179.5" cy="105.7" r="1.5" fill="#a7afb6" opacity="0.55"/><circle cx="72.8" cy="122.4" r="2.0" fill="#a7afb6" opacity="0.55"/><circle cx="126.0" cy="133.2" r="1.0" fill="#a7afb6" opacity="0.55"/>
  <!-- eyebrows (bushy, signature) -->
  <path d="M70 104 Q86 84 108 100 Q90 100 78 112 Z" fill="#c3cace"/>
  <path d="M170 104 Q154 84 132 100 Q150 100 162 112 Z" fill="#c3cace"/>
  <!-- eyes -->
  <circle cx="94" cy="108" r="7.5" fill="#23282d"/>
  <circle cx="146" cy="108" r="7.5" fill="#23282d"/>
  <circle cx="96.4" cy="105.6" r="2.2" fill="#ffffff"/>
  <circle cx="148.4" cy="105.6" r="2.2" fill="#ffffff"/>
  <!-- muzzle bridge -->
  <path d="M104 120 L136 120 L132 150 L108 150 Z" fill="#a7afb6"/>
  <!-- beard (signature) -->
  <path d="M78 140 Q120 132 162 140 Q170 186 150 210 Q120 226 90 210 Q70 186 78 140 Z" fill="#e9ecee"/>
  <path d="M96 150 Q120 146 144 150 Q150 180 138 198 Q120 210 102 198 Q90 180 96 150 Z" fill="#a7afb6" opacity="0.5"/>
  <circle cx="125.6" cy="173.7" r="1.6" fill="#7c858e" opacity="0.55"/><circle cx="117.1" cy="177.5" r="1.2" fill="#7c858e" opacity="0.55"/><circle cx="83.7" cy="177.4" r="0.9" fill="#5b636b" opacity="0.55"/><circle cx="84.5" cy="199.6" r="1.6" fill="#5b636b" opacity="0.55"/><circle cx="113.9" cy="197.6" r="1.1" fill="#7c858e" opacity="0.55"/><circle cx="134.5" cy="187.7" r="1.0" fill="#7c858e" opacity="0.55"/><circle cx="156.6" cy="184.8" r="0.9" fill="#7c858e" opacity="0.55"/><circle cx="99.4" cy="159.7" r="2.0" fill="#5b636b" opacity="0.55"/><circle cx="141.2" cy="162.4" r="1.7" fill="#5b636b" opacity="0.55"/><circle cx="115.0" cy="151.9" r="1.6" fill="#7c858e" opacity="0.55"/><circle cx="146.7" cy="206.2" r="1.1" fill="#7c858e" opacity="0.55"/><circle cx="119.7" cy="197.1" r="1.7" fill="#7c858e" opacity="0.55"/><circle cx="92.7" cy="182.0" r="1.3" fill="#7c858e" opacity="0.55"/><circle cx="89.8" cy="194.5" r="0.9" fill="#7c858e" opacity="0.55"/><circle cx="157.6" cy="159.5" r="1.3" fill="#5b636b" opacity="0.55"/><circle cx="115.8" cy="188.8" r="1.0" fill="#7c858e" opacity="0.55"/><circle cx="148.5" cy="164.0" r="1.2" fill="#7c858e" opacity="0.55"/><circle cx="141.6" cy="176.8" r="1.3" fill="#5b636b" opacity="0.55"/><circle cx="98.4" cy="180.7" r="0.9" fill="#5b636b" opacity="0.55"/><circle cx="99.9" cy="163.7" r="1.3" fill="#7c858e" opacity="0.55"/><circle cx="111.5" cy="200.2" r="1.7" fill="#7c858e" opacity="0.55"/><circle cx="138.4" cy="207.5" r="1.2" fill="#5b636b" opacity="0.55"/><circle cx="128.0" cy="151.8" r="1.4" fill="#5b636b" opacity="0.55"/><circle cx="151.0" cy="156.1" r="1.5" fill="#5b636b" opacity="0.55"/><circle cx="123.0" cy="177.4" r="1.0" fill="#5b636b" opacity="0.55"/><circle cx="88.7" cy="206.4" r="1.9" fill="#7c858e" opacity="0.55"/><circle cx="115.2" cy="151.9" r="1.3" fill="#7c858e" opacity="0.55"/><circle cx="89.5" cy="175.2" r="2.1" fill="#5b636b" opacity="0.55"/><circle cx="91.9" cy="199.7" r="1.8" fill="#5b636b" opacity="0.55"/><circle cx="107.8" cy="163.5" r="1.8" fill="#5b636b" opacity="0.55"/><circle cx="114.0" cy="187.0" r="2.0" fill="#7c858e" opacity="0.55"/><circle cx="138.7" cy="167.4" r="0.8" fill="#7c858e" opacity="0.55"/><circle cx="131.1" cy="183.3" r="1.9" fill="#5b636b" opacity="0.55"/><circle cx="82.9" cy="155.0" r="1.2" fill="#7c858e" opacity="0.55"/><circle cx="137.0" cy="201.3" r="0.9" fill="#7c858e" opacity="0.55"/><circle cx="157.5" cy="165.1" r="1.7" fill="#7c858e" opacity="0.55"/><circle cx="109.2" cy="172.0" r="1.8" fill="#5b636b" opacity="0.55"/><circle cx="95.2" cy="183.5" r="1.4" fill="#7c858e" opacity="0.55"/><circle cx="134.4" cy="166.5" r="2.1" fill="#5b636b" opacity="0.55"/><circle cx="115.9" cy="192.6" r="1.1" fill="#5b636b" opacity="0.55"/>
  <!-- nose -->
  <path d="M108 138 Q120 132 132 138 Q134 150 120 154 Q106 150 108 138 Z" fill="#1c1f23"/>
  <ellipse cx="114" cy="143" rx="2.4" ry="1.6" fill="#3a3f45"/>
  <ellipse cx="126" cy="143" rx="2.4" ry="1.6" fill="#3a3f45"/>
  <!-- mouth hint -->
  <path d="M120 154 L120 164 M120 164 Q110 170 102 166 M120 164 Q130 170 138 166" stroke="#23282d" stroke-width="1.6" fill="none" stroke-linecap="round" opacity="0.6"/>
</g></g><text x="80" y="150" text-anchor="middle" font-family="Georgia, serif" font-size="15" fill="#23282d">Salt &amp; Pepper</text><g transform="translate(170,6) scale(0.5)"><g>
  <!-- ears -->
  <path d="M52 60 L44 24 Q66 30 78 58 Z" fill="#2c3035"/>
  <path d="M188 60 L196 24 Q174 30 162 58 Z" fill="#2c3035"/>
  <path d="M55 58 L50 34 Q64 40 74 58 Z" fill="#3d444b"/>
  <path d="M185 58 L190 34 Q176 40 166 58 Z" fill="#3d444b"/>
  <!-- head -->
  <path d="M120 40 C168 40 190 74 190 118 C190 150 176 168 158 178
           L82 178 C64 168 50 150 50 118 C50 74 72 40 120 40 Z" fill="#3d444b"/>
  <!-- crown shading -->
  <path d="M120 40 C168 40 190 74 190 112 C176 96 150 88 120 88
           C90 88 64 96 50 112 C50 74 72 40 120 40 Z" fill="#2c3035"/>
  <circle cx="88.3" cy="64.3" r="1.3" fill="#586069" opacity="0.55"/><circle cx="70.8" cy="56.8" r="1.5" fill="#eceef0" opacity="0.55"/><circle cx="156.1" cy="123.9" r="1.1" fill="#2c3035" opacity="0.55"/><circle cx="103.2" cy="125.2" r="1.9" fill="#eceef0" opacity="0.55"/><circle cx="85.7" cy="138.5" r="1.9" fill="#eceef0" opacity="0.55"/><circle cx="156.1" cy="72.4" r="1.2" fill="#2c3035" opacity="0.55"/><circle cx="164.1" cy="141.5" r="1.9" fill="#eceef0" opacity="0.55"/><circle cx="70.4" cy="109.5" r="1.7" fill="#2c3035" opacity="0.55"/><circle cx="89.9" cy="77.3" r="1.2" fill="#2c3035" opacity="0.55"/><circle cx="160.9" cy="55.6" r="1.2" fill="#2c3035" opacity="0.55"/><circle cx="165.9" cy="131.3" r="1.5" fill="#eceef0" opacity="0.55"/><circle cx="110.8" cy="80.9" r="1.4" fill="#586069" opacity="0.55"/><circle cx="96.6" cy="128.1" r="0.9" fill="#586069" opacity="0.55"/><circle cx="115.5" cy="144.8" r="1.5" fill="#2c3035" opacity="0.55"/><circle cx="116.5" cy="85.9" r="2.1" fill="#586069" opacity="0.55"/><circle cx="68.0" cy="137.2" r="1.6" fill="#eceef0" opacity="0.55"/><circle cx="93.2" cy="87.0" r="1.8" fill="#eceef0" opacity="0.55"/><circle cx="136.1" cy="72.9" r="1.2" fill="#586069" opacity="0.55"/><circle cx="145.0" cy="80.0" r="1.6" fill="#586069" opacity="0.55"/><circle cx="74.7" cy="139.1" r="1.2" fill="#586069" opacity="0.55"/><circle cx="65.1" cy="117.8" r="2.0" fill="#eceef0" opacity="0.55"/><circle cx="148.2" cy="141.4" r="0.8" fill="#eceef0" opacity="0.55"/><circle cx="98.6" cy="68.8" r="1.6" fill="#2c3035" opacity="0.55"/><circle cx="141.6" cy="62.0" r="1.6" fill="#eceef0" opacity="0.55"/><circle cx="95.0" cy="77.5" r="1.6" fill="#586069" opacity="0.55"/><circle cx="99.8" cy="55.8" r="0.9" fill="#586069" opacity="0.55"/><circle cx="103.8" cy="127.4" r="2.1" fill="#2c3035" opacity="0.55"/><circle cx="71.7" cy="143.4" r="1.4" fill="#586069" opacity="0.55"/><circle cx="73.6" cy="60.6" r="1.8" fill="#2c3035" opacity="0.55"/><circle cx="141.2" cy="68.5" r="0.9" fill="#eceef0" opacity="0.55"/><circle cx="129.9" cy="83.9" r="0.8" fill="#2c3035" opacity="0.55"/><circle cx="95.1" cy="144.7" r="1.6" fill="#586069" opacity="0.55"/><circle cx="117.3" cy="76.8" r="1.3" fill="#586069" opacity="0.55"/><circle cx="86.3" cy="94.9" r="1.6" fill="#eceef0" opacity="0.55"/><circle cx="159.7" cy="99.9" r="0.8" fill="#eceef0" opacity="0.55"/><circle cx="90.4" cy="102.3" r="1.8" fill="#eceef0" opacity="0.55"/><circle cx="164.4" cy="67.8" r="0.9" fill="#eceef0" opacity="0.55"/><circle cx="127.8" cy="144.2" r="1.3" fill="#2c3035" opacity="0.55"/><circle cx="138.5" cy="126.2" r="1.8" fill="#eceef0" opacity="0.55"/><circle cx="106.5" cy="93.7" r="2.0" fill="#2c3035" opacity="0.55"/><circle cx="168.0" cy="138.2" r="1.2" fill="#2c3035" opacity="0.55"/><circle cx="116.5" cy="136.1" r="1.2" fill="#eceef0" opacity="0.55"/><circle cx="123.4" cy="113.9" r="1.7" fill="#eceef0" opacity="0.55"/><circle cx="100.6" cy="90.3" r="1.4" fill="#eceef0" opacity="0.55"/><circle cx="175.4" cy="115.2" r="0.9" fill="#2c3035" opacity="0.55"/><circle cx="75.3" cy="142.2" r="1.7" fill="#586069" opacity="0.55"/><circle cx="164.4" cy="116.9" r="1.4" fill="#eceef0" opacity="0.55"/><circle cx="149.6" cy="138.5" r="1.1" fill="#586069" opacity="0.55"/><circle cx="85.3" cy="69.1" r="1.6" fill="#eceef0" opacity="0.55"/><circle cx="73.9" cy="127.9" r="1.8" fill="#586069" opacity="0.55"/><circle cx="126.1" cy="134.1" r="1.1" fill="#2c3035" opacity="0.55"/><circle cx="133.0" cy="128.7" r="1.5" fill="#eceef0" opacity="0.55"/><circle cx="169.8" cy="94.6" r="0.9" fill="#2c3035" opacity="0.55"/><circle cx="131.3" cy="99.0" r="1.9" fill="#2c3035" opacity="0.55"/><circle cx="152.9" cy="58.7" r="0.9" fill="#2c3035" opacity="0.55"/><circle cx="168.6" cy="81.7" r="1.3" fill="#586069" opacity="0.55"/><circle cx="70.2" cy="103.9" r="1.3" fill="#eceef0" opacity="0.55"/><circle cx="106.6" cy="123.3" r="1.9" fill="#eceef0" opacity="0.55"/><circle cx="71.4" cy="65.3" r="1.6" fill="#eceef0" opacity="0.55"/><circle cx="121.5" cy="94.1" r="1.9" fill="#eceef0" opacity="0.55"/><circle cx="68.0" cy="134.3" r="1.1" fill="#eceef0" opacity="0.55"/><circle cx="171.6" cy="98.1" r="1.0" fill="#2c3035" opacity="0.55"/><circle cx="80.1" cy="133.7" r="1.0" fill="#586069" opacity="0.55"/><circle cx="99.2" cy="132.4" r="1.1" fill="#586069" opacity="0.55"/><circle cx="145.3" cy="55.5" r="1.2" fill="#2c3035" opacity="0.55"/><circle cx="73.3" cy="125.8" r="1.6" fill="#2c3035" opacity="0.55"/><circle cx="69.1" cy="77.1" r="1.9" fill="#eceef0" opacity="0.55"/><circle cx="87.5" cy="71.2" r="1.9" fill="#586069" opacity="0.55"/><circle cx="141.2" cy="109.9" r="1.2" fill="#eceef0" opacity="0.55"/><circle cx="153.9" cy="106.2" r="2.0" fill="#2c3035" opacity="0.55"/><circle cx="154.4" cy="110.2" r="1.4" fill="#586069" opacity="0.55"/><circle cx="90.2" cy="108.7" r="2.1" fill="#eceef0" opacity="0.55"/><circle cx="76.0" cy="62.4" r="1.0" fill="#2c3035" opacity="0.55"/><circle cx="81.3" cy="136.2" r="1.3" fill="#2c3035" opacity="0.55"/><circle cx="155.3" cy="115.7" r="1.9" fill="#586069" opacity="0.55"/><circle cx="108.3" cy="139.3" r="1.0" fill="#2c3035" opacity="0.55"/><circle cx="104.6" cy="70.7" r="1.9" fill="#2c3035" opacity="0.55"/><circle cx="62.4" cy="140.4" r="1.9" fill="#eceef0" opacity="0.55"/><circle cx="156.9" cy="140.8" r="1.0" fill="#2c3035" opacity="0.55"/><circle cx="178.4" cy="114.5" r="2.1" fill="#586069" opacity="0.55"/><circle cx="151.2" cy="142.2" r="1.0" fill="#2c3035" opacity="0.55"/><circle cx="117.5" cy="134.8" r="1.1" fill="#2c3035" opacity="0.55"/><circle cx="96.3" cy="138.5" r="1.3" fill="#2c3035" opacity="0.55"/><circle cx="88.5" cy="99.1" r="1.1" fill="#eceef0" opacity="0.55"/><circle cx="87.6" cy="84.4" r="1.6" fill="#eceef0" opacity="0.55"/><circle cx="167.9" cy="91.0" r="1.3" fill="#eceef0" opacity="0.55"/><circle cx="94.1" cy="92.0" r="0.8" fill="#586069" opacity="0.55"/><circle cx="167.7" cy="96.3" r="1.5" fill="#eceef0" opacity="0.55"/><circle cx="108.5" cy="90.0" r="0.8" fill="#2c3035" opacity="0.55"/><circle cx="68.1" cy="142.6" r="2.1" fill="#eceef0" opacity="0.55"/>
  <!-- eyebrows (bushy, signature) -->
  <path d="M70 104 Q86 84 108 100 Q90 100 78 112 Z" fill="#c9ced2"/>
  <path d="M170 104 Q154 84 132 100 Q150 100 162 112 Z" fill="#c9ced2"/>
  <!-- eyes -->
  <circle cx="94" cy="108" r="7.5" fill="#23282d"/>
  <circle cx="146" cy="108" r="7.5" fill="#23282d"/>
  <circle cx="96.4" cy="105.6" r="2.2" fill="#ffffff"/>
  <circle cx="148.4" cy="105.6" r="2.2" fill="#ffffff"/>
  <!-- muzzle bridge -->
  <path d="M104 120 L136 120 L132 150 L108 150 Z" fill="#586069"/>
  <!-- beard (signature) -->
  <path d="M78 140 Q120 132 162 140 Q170 186 150 210 Q120 226 90 210 Q70 186 78 140 Z" fill="#eceef0"/>
  <path d="M96 150 Q120 146 144 150 Q150 180 138 198 Q120 210 102 198 Q90 180 96 150 Z" fill="#586069" opacity="0.5"/>
  <circle cx="116.3" cy="181.6" r="2.0" fill="#2c3035" opacity="0.55"/><circle cx="116.2" cy="199.3" r="1.0" fill="#2c3035" opacity="0.55"/><circle cx="130.1" cy="195.6" r="0.9" fill="#2c3035" opacity="0.55"/><circle cx="92.1" cy="180.3" r="2.0" fill="#3d444b" opacity="0.55"/><circle cx="127.4" cy="171.8" r="1.4" fill="#3d444b" opacity="0.55"/><circle cx="129.6" cy="197.9" r="0.9" fill="#3d444b" opacity="0.55"/><circle cx="95.8" cy="162.5" r="0.8" fill="#2c3035" opacity="0.55"/><circle cx="106.5" cy="183.5" r="1.1" fill="#3d444b" opacity="0.55"/><circle cx="130.9" cy="178.0" r="1.7" fill="#2c3035" opacity="0.55"/><circle cx="132.1" cy="172.4" r="1.5" fill="#3d444b" opacity="0.55"/><circle cx="136.2" cy="166.9" r="1.1" fill="#2c3035" opacity="0.55"/><circle cx="83.3" cy="181.8" r="0.9" fill="#3d444b" opacity="0.55"/><circle cx="147.0" cy="171.2" r="2.0" fill="#3d444b" opacity="0.55"/><circle cx="97.7" cy="203.6" r="0.9" fill="#2c3035" opacity="0.55"/><circle cx="157.5" cy="171.8" r="0.9" fill="#3d444b" opacity="0.55"/><circle cx="141.7" cy="164.2" r="0.9" fill="#2c3035" opacity="0.55"/><circle cx="82.2" cy="172.6" r="2.0" fill="#3d444b" opacity="0.55"/><circle cx="100.2" cy="154.1" r="0.9" fill="#2c3035" opacity="0.55"/><circle cx="94.9" cy="181.6" r="1.4" fill="#3d444b" opacity="0.55"/><circle cx="157.9" cy="194.2" r="1.3" fill="#2c3035" opacity="0.55"/><circle cx="90.1" cy="173.2" r="1.1" fill="#2c3035" opacity="0.55"/><circle cx="148.4" cy="206.5" r="1.6" fill="#3d444b" opacity="0.55"/><circle cx="97.4" cy="171.7" r="1.9" fill="#3d444b" opacity="0.55"/><circle cx="84.3" cy="156.8" r="1.4" fill="#3d444b" opacity="0.55"/><circle cx="141.3" cy="167.7" r="1.2" fill="#3d444b" opacity="0.55"/><circle cx="86.8" cy="160.5" r="1.6" fill="#3d444b" opacity="0.55"/><circle cx="127.9" cy="170.3" r="1.4" fill="#2c3035" opacity="0.55"/><circle cx="145.9" cy="156.1" r="1.3" fill="#3d444b" opacity="0.55"/><circle cx="105.2" cy="161.7" r="1.6" fill="#3d444b" opacity="0.55"/><circle cx="93.4" cy="185.7" r="1.5" fill="#2c3035" opacity="0.55"/><circle cx="149.8" cy="184.2" r="1.3" fill="#3d444b" opacity="0.55"/><circle cx="89.5" cy="178.7" r="1.1" fill="#2c3035" opacity="0.55"/><circle cx="101.0" cy="197.4" r="1.6" fill="#2c3035" opacity="0.55"/><circle cx="121.6" cy="203.8" r="2.1" fill="#3d444b" opacity="0.55"/><circle cx="98.8" cy="181.6" r="1.9" fill="#3d444b" opacity="0.55"/><circle cx="102.9" cy="203.0" r="1.1" fill="#3d444b" opacity="0.55"/><circle cx="86.4" cy="172.7" r="1.1" fill="#3d444b" opacity="0.55"/><circle cx="94.7" cy="170.1" r="1.5" fill="#3d444b" opacity="0.55"/><circle cx="88.2" cy="156.3" r="1.4" fill="#2c3035" opacity="0.55"/><circle cx="132.2" cy="189.5" r="1.6" fill="#3d444b" opacity="0.55"/>
  <!-- nose -->
  <path d="M108 138 Q120 132 132 138 Q134 150 120 154 Q106 150 108 138 Z" fill="#1c1f23"/>
  <ellipse cx="114" cy="143" rx="2.4" ry="1.6" fill="#3a3f45"/>
  <ellipse cx="126" cy="143" rx="2.4" ry="1.6" fill="#3a3f45"/>
  <!-- mouth hint -->
  <path d="M120 154 L120 164 M120 164 Q110 170 102 166 M120 164 Q130 170 138 166" stroke="#23282d" stroke-width="1.6" fill="none" stroke-linecap="round" opacity="0.6"/>
</g></g><text x="230" y="150" text-anchor="middle" font-family="Georgia, serif" font-size="15" fill="#23282d">Black &amp; Silver</text><g transform="translate(320,6) scale(0.5)"><g>
  <!-- ears -->
  <path d="M52 60 L44 24 Q66 30 78 58 Z" fill="#2a2e33"/>
  <path d="M188 60 L196 24 Q174 30 162 58 Z" fill="#2a2e33"/>
  <path d="M55 58 L50 34 Q64 40 74 58 Z" fill="#3a4046"/>
  <path d="M185 58 L190 34 Q176 40 166 58 Z" fill="#3a4046"/>
  <!-- head -->
  <path d="M120 40 C168 40 190 74 190 118 C190 150 176 168 158 178
           L82 178 C64 168 50 150 50 118 C50 74 72 40 120 40 Z" fill="#3a4046"/>
  <!-- crown shading -->
  <path d="M120 40 C168 40 190 74 190 112 C176 96 150 88 120 88
           C90 88 64 96 50 112 C50 74 72 40 120 40 Z" fill="#2a2e33"/>
  <circle cx="134.7" cy="121.8" r="1.8" fill="#2a2e33" opacity="0.55"/><circle cx="138.2" cy="102.7" r="1.9" fill="#4b535a" opacity="0.55"/><circle cx="137.9" cy="136.1" r="0.9" fill="#c9ced2" opacity="0.55"/><circle cx="164.2" cy="89.3" r="0.9" fill="#4b535a" opacity="0.55"/><circle cx="61.6" cy="74.5" r="1.2" fill="#c9ced2" opacity="0.55"/><circle cx="79.2" cy="126.7" r="1.0" fill="#2a2e33" opacity="0.55"/><circle cx="113.4" cy="66.9" r="2.1" fill="#4b535a" opacity="0.55"/><circle cx="85.1" cy="74.4" r="2.1" fill="#4b535a" opacity="0.55"/><circle cx="94.7" cy="141.5" r="1.5" fill="#2a2e33" opacity="0.55"/><circle cx="135.1" cy="71.4" r="2.1" fill="#4b535a" opacity="0.55"/><circle cx="176.0" cy="135.4" r="1.2" fill="#c9ced2" opacity="0.55"/><circle cx="109.8" cy="139.2" r="1.1" fill="#c9ced2" opacity="0.55"/><circle cx="96.2" cy="109.3" r="0.8" fill="#2a2e33" opacity="0.55"/><circle cx="144.9" cy="60.9" r="1.3" fill="#c9ced2" opacity="0.55"/><circle cx="117.7" cy="83.4" r="1.4" fill="#2a2e33" opacity="0.55"/><circle cx="81.1" cy="78.1" r="2.0" fill="#2a2e33" opacity="0.55"/><circle cx="102.9" cy="91.4" r="1.5" fill="#c9ced2" opacity="0.55"/><circle cx="103.9" cy="107.1" r="0.8" fill="#4b535a" opacity="0.55"/><circle cx="144.9" cy="111.1" r="2.0" fill="#4b535a" opacity="0.55"/><circle cx="150.7" cy="138.7" r="2.0" fill="#c9ced2" opacity="0.55"/><circle cx="121.5" cy="135.3" r="1.1" fill="#c9ced2" opacity="0.55"/><circle cx="73.0" cy="122.4" r="1.8" fill="#c9ced2" opacity="0.55"/><circle cx="64.4" cy="140.1" r="0.9" fill="#c9ced2" opacity="0.55"/><circle cx="121.5" cy="87.6" r="1.0" fill="#c9ced2" opacity="0.55"/><circle cx="170.9" cy="104.1" r="1.2" fill="#c9ced2" opacity="0.55"/><circle cx="96.7" cy="126.9" r="1.6" fill="#2a2e33" opacity="0.55"/><circle cx="142.7" cy="144.7" r="1.0" fill="#4b535a" opacity="0.55"/><circle cx="69.7" cy="109.1" r="2.0" fill="#4b535a" opacity="0.55"/><circle cx="88.5" cy="108.5" r="1.9" fill="#c9ced2" opacity="0.55"/><circle cx="138.1" cy="68.1" r="2.1" fill="#2a2e33" opacity="0.55"/><circle cx="63.9" cy="99.4" r="1.9" fill="#4b535a" opacity="0.55"/><circle cx="177.8" cy="105.8" r="1.0" fill="#c9ced2" opacity="0.55"/><circle cx="72.8" cy="94.1" r="1.0" fill="#c9ced2" opacity="0.55"/><circle cx="95.4" cy="95.8" r="2.1" fill="#4b535a" opacity="0.55"/><circle cx="177.1" cy="95.8" r="1.4" fill="#2a2e33" opacity="0.55"/><circle cx="98.1" cy="79.7" r="1.4" fill="#4b535a" opacity="0.55"/><circle cx="73.5" cy="129.0" r="1.5" fill="#4b535a" opacity="0.55"/><circle cx="135.2" cy="99.9" r="1.2" fill="#4b535a" opacity="0.55"/><circle cx="119.0" cy="101.4" r="1.5" fill="#2a2e33" opacity="0.55"/><circle cx="103.4" cy="125.7" r="1.8" fill="#2a2e33" opacity="0.55"/><circle cx="130.5" cy="58.1" r="1.2" fill="#2a2e33" opacity="0.55"/><circle cx="144.5" cy="80.3" r="1.4" fill="#2a2e33" opacity="0.55"/><circle cx="145.9" cy="141.1" r="1.2" fill="#4b535a" opacity="0.55"/><circle cx="129.7" cy="56.0" r="1.5" fill="#c9ced2" opacity="0.55"/><circle cx="99.1" cy="79.6" r="1.2" fill="#2a2e33" opacity="0.55"/><circle cx="137.7" cy="126.8" r="1.3" fill="#2a2e33" opacity="0.55"/><circle cx="101.5" cy="139.4" r="1.3" fill="#4b535a" opacity="0.55"/><circle cx="164.4" cy="117.0" r="2.1" fill="#c9ced2" opacity="0.55"/><circle cx="122.2" cy="102.6" r="1.0" fill="#c9ced2" opacity="0.55"/><circle cx="172.5" cy="98.0" r="1.7" fill="#2a2e33" opacity="0.55"/><circle cx="140.5" cy="92.5" r="1.6" fill="#2a2e33" opacity="0.55"/><circle cx="122.0" cy="139.3" r="1.2" fill="#2a2e33" opacity="0.55"/><circle cx="153.0" cy="112.3" r="1.7" fill="#4b535a" opacity="0.55"/><circle cx="83.5" cy="107.8" r="1.6" fill="#4b535a" opacity="0.55"/><circle cx="86.3" cy="116.7" r="1.6" fill="#4b535a" opacity="0.55"/><circle cx="178.4" cy="143.2" r="1.0" fill="#4b535a" opacity="0.55"/><circle cx="73.3" cy="142.1" r="1.4" fill="#2a2e33" opacity="0.55"/><circle cx="64.3" cy="96.9" r="1.3" fill="#2a2e33" opacity="0.55"/><circle cx="68.6" cy="73.4" r="1.7" fill="#c9ced2" opacity="0.55"/><circle cx="60.1" cy="91.5" r="1.2" fill="#c9ced2" opacity="0.55"/><circle cx="164.0" cy="117.0" r="1.5" fill="#4b535a" opacity="0.55"/><circle cx="126.0" cy="82.1" r="1.2" fill="#2a2e33" opacity="0.55"/><circle cx="100.7" cy="107.3" r="2.0" fill="#4b535a" opacity="0.55"/><circle cx="110.3" cy="128.2" r="1.6" fill="#c9ced2" opacity="0.55"/><circle cx="116.1" cy="69.1" r="1.3" fill="#c9ced2" opacity="0.55"/><circle cx="174.9" cy="142.1" r="1.6" fill="#c9ced2" opacity="0.55"/><circle cx="158.5" cy="114.5" r="1.3" fill="#c9ced2" opacity="0.55"/><circle cx="127.9" cy="110.4" r="1.0" fill="#2a2e33" opacity="0.55"/><circle cx="165.2" cy="105.8" r="1.4" fill="#4b535a" opacity="0.55"/><circle cx="119.2" cy="98.2" r="1.7" fill="#c9ced2" opacity="0.55"/><circle cx="175.3" cy="137.2" r="1.6" fill="#c9ced2" opacity="0.55"/><circle cx="148.9" cy="82.1" r="1.1" fill="#4b535a" opacity="0.55"/><circle cx="98.3" cy="143.6" r="1.4" fill="#c9ced2" opacity="0.55"/><circle cx="77.2" cy="57.1" r="1.7" fill="#c9ced2" opacity="0.55"/><circle cx="89.5" cy="58.6" r="1.0" fill="#c9ced2" opacity="0.55"/><circle cx="61.6" cy="102.9" r="1.2" fill="#c9ced2" opacity="0.55"/><circle cx="153.8" cy="77.1" r="1.1" fill="#4b535a" opacity="0.55"/><circle cx="146.6" cy="80.7" r="1.4" fill="#c9ced2" opacity="0.55"/><circle cx="122.2" cy="132.7" r="1.9" fill="#4b535a" opacity="0.55"/><circle cx="61.9" cy="66.3" r="1.2" fill="#2a2e33" opacity="0.55"/><circle cx="100.3" cy="81.7" r="1.5" fill="#c9ced2" opacity="0.55"/><circle cx="102.0" cy="116.4" r="1.9" fill="#4b535a" opacity="0.55"/><circle cx="64.4" cy="77.7" r="1.4" fill="#4b535a" opacity="0.55"/><circle cx="166.6" cy="104.1" r="0.8" fill="#c9ced2" opacity="0.55"/><circle cx="131.4" cy="117.0" r="2.0" fill="#2a2e33" opacity="0.55"/><circle cx="117.8" cy="137.1" r="1.3" fill="#c9ced2" opacity="0.55"/><circle cx="141.9" cy="119.8" r="2.0" fill="#c9ced2" opacity="0.55"/><circle cx="159.6" cy="60.9" r="1.9" fill="#2a2e33" opacity="0.55"/><circle cx="153.5" cy="107.4" r="1.6" fill="#c9ced2" opacity="0.55"/><circle cx="169.3" cy="67.8" r="1.4" fill="#2a2e33" opacity="0.55"/>
  <!-- eyebrows (bushy, signature) -->
  <path d="M70 104 Q86 84 108 100 Q90 100 78 112 Z" fill="#6b737a"/>
  <path d="M170 104 Q154 84 132 100 Q150 100 162 112 Z" fill="#6b737a"/>
  <!-- eyes -->
  <circle cx="94" cy="108" r="7.5" fill="#23282d"/>
  <circle cx="146" cy="108" r="7.5" fill="#23282d"/>
  <circle cx="96.4" cy="105.6" r="2.2" fill="#ffffff"/>
  <circle cx="148.4" cy="105.6" r="2.2" fill="#ffffff"/>
  <!-- muzzle bridge -->
  <path d="M104 120 L136 120 L132 150 L108 150 Z" fill="#4b535a"/>
  <!-- beard (signature) -->
  <path d="M78 140 Q120 132 162 140 Q170 186 150 210 Q120 226 90 210 Q70 186 78 140 Z" fill="#c9ced2"/>
  <path d="M96 150 Q120 146 144 150 Q150 180 138 198 Q120 210 102 198 Q90 180 96 150 Z" fill="#4b535a" opacity="0.5"/>
  <circle cx="118.0" cy="187.4" r="1.7" fill="#3a4046" opacity="0.55"/><circle cx="110.8" cy="207.8" r="1.4" fill="#2a2e33" opacity="0.55"/><circle cx="134.9" cy="184.1" r="1.5" fill="#3a4046" opacity="0.55"/><circle cx="157.3" cy="170.1" r="1.2" fill="#3a4046" opacity="0.55"/><circle cx="85.6" cy="197.1" r="0.9" fill="#2a2e33" opacity="0.55"/><circle cx="134.2" cy="195.9" r="0.9" fill="#3a4046" opacity="0.55"/><circle cx="144.9" cy="187.7" r="1.1" fill="#2a2e33" opacity="0.55"/><circle cx="154.8" cy="154.8" r="1.4" fill="#3a4046" opacity="0.55"/><circle cx="123.1" cy="200.9" r="1.5" fill="#3a4046" opacity="0.55"/><circle cx="124.3" cy="178.4" r="0.9" fill="#2a2e33" opacity="0.55"/><circle cx="133.1" cy="176.2" r="1.6" fill="#3a4046" opacity="0.55"/><circle cx="131.0" cy="153.0" r="1.0" fill="#2a2e33" opacity="0.55"/><circle cx="108.8" cy="169.8" r="1.7" fill="#2a2e33" opacity="0.55"/><circle cx="89.9" cy="162.1" r="1.3" fill="#3a4046" opacity="0.55"/><circle cx="83.2" cy="197.4" r="1.4" fill="#3a4046" opacity="0.55"/><circle cx="98.3" cy="173.6" r="1.3" fill="#3a4046" opacity="0.55"/><circle cx="139.8" cy="161.2" r="0.9" fill="#2a2e33" opacity="0.55"/><circle cx="83.9" cy="164.6" r="1.2" fill="#3a4046" opacity="0.55"/><circle cx="121.1" cy="170.1" r="1.2" fill="#2a2e33" opacity="0.55"/><circle cx="118.1" cy="205.5" r="1.4" fill="#3a4046" opacity="0.55"/><circle cx="117.2" cy="180.9" r="1.0" fill="#3a4046" opacity="0.55"/><circle cx="152.1" cy="148.4" r="1.1" fill="#2a2e33" opacity="0.55"/><circle cx="95.0" cy="195.7" r="1.5" fill="#3a4046" opacity="0.55"/><circle cx="129.3" cy="207.0" r="2.1" fill="#3a4046" opacity="0.55"/><circle cx="82.9" cy="167.3" r="1.8" fill="#2a2e33" opacity="0.55"/><circle cx="130.9" cy="161.8" r="1.5" fill="#2a2e33" opacity="0.55"/><circle cx="119.2" cy="169.2" r="1.7" fill="#2a2e33" opacity="0.55"/><circle cx="150.8" cy="157.7" r="1.2" fill="#3a4046" opacity="0.55"/><circle cx="102.7" cy="204.6" r="1.5" fill="#2a2e33" opacity="0.55"/><circle cx="136.0" cy="160.8" r="1.2" fill="#2a2e33" opacity="0.55"/><circle cx="83.2" cy="148.2" r="0.8" fill="#2a2e33" opacity="0.55"/><circle cx="113.8" cy="162.5" r="1.4" fill="#3a4046" opacity="0.55"/><circle cx="124.7" cy="185.5" r="2.0" fill="#2a2e33" opacity="0.55"/><circle cx="140.3" cy="173.1" r="1.6" fill="#2a2e33" opacity="0.55"/><circle cx="142.6" cy="182.8" r="1.3" fill="#2a2e33" opacity="0.55"/><circle cx="130.8" cy="171.1" r="1.0" fill="#3a4046" opacity="0.55"/><circle cx="151.5" cy="195.9" r="2.0" fill="#2a2e33" opacity="0.55"/><circle cx="122.7" cy="195.3" r="1.3" fill="#3a4046" opacity="0.55"/><circle cx="136.4" cy="159.3" r="1.2" fill="#2a2e33" opacity="0.55"/><circle cx="129.5" cy="155.5" r="1.5" fill="#2a2e33" opacity="0.55"/>
  <!-- nose -->
  <path d="M108 138 Q120 132 132 138 Q134 150 120 154 Q106 150 108 138 Z" fill="#1c1f23"/>
  <ellipse cx="114" cy="143" rx="2.4" ry="1.6" fill="#3a3f45"/>
  <ellipse cx="126" cy="143" rx="2.4" ry="1.6" fill="#3a3f45"/>
  <!-- mouth hint -->
  <path d="M120 154 L120 164 M120 164 Q110 170 102 166 M120 164 Q130 170 138 166" stroke="#23282d" stroke-width="1.6" fill="none" stroke-linecap="round" opacity="0.6"/>
</g></g><text x="380" y="150" text-anchor="middle" font-family="Georgia, serif" font-size="15" fill="#23282d">Black</text></svg>