<svg xmlns="http://www.w3.org/2000/svg" viewBox="0 0 240 240" role="img" aria-label="Illustration of a black Miniature Schnauzer"><title>Illustration of a black Miniature Schnauzer</title><g>
  <!-- ears -->
  <path d="M52 60 L44 24 Q66 30 78 58 Z" fill="#2a2e33"/>
  <path d="M188 60 L196 24 Q174 30 162 58 Z" fill="#2a2e33"/>
  <path d="M55 58 L50 34 Q64 40 74 58 Z" fill="#3a4046"/>
  <path d="M185 58 L190 34 Q176 40 166 58 Z" fill="#3a4046"/>
  <!-- head -->
  <path d="M120 40 C168 40 190 74 190 118 C190 150 176 168 158 178
           L82 178 C64 168 50 150 50 118 C50 74 72 40 120 40 Z" fill="#3a4046"/>
  <!-- crown shading -->
  <path d="M120 40 C168 40 190 74 190 112 C176 96 150 88 120 88
           C90 88 64 96 50 112 C50 74 72 40 120 40 Z" fill="#2a2e33"/>
  <circle cx="68.8" cy="108.5" r="2.1" fill="#c9ced2" opacity="0.55"/><circle cx="143.9" cy="110.8" r="1.2" fill="#2a2e33" opacity="0.55"/><circle cx="142.3" cy="108.9" r="2.1" fill="#2a2e33" opacity="0.55"/><circle cx="143.4" cy="75.9" r="1.0" fill="#4b535a" opacity="0.55"/><circle cx="143.0" cy="75.0" r="1.9" fill="#c9ced2" opacity="0.55"/><circle cx="68.3" cy="81.6" r="1.5" fill="#2a2e33" opacity="0.55"/><circle cx="62.1" cy="92.5" r="1.1" fill="#c9ced2" opacity="0.55"/><circle cx="104.4" cy="88.6" r="1.4" fill="#4b535a" opacity="0.55"/><circle cx="102.0" cy="99.8" r="1.0" fill="#c9ced2" opacity="0.55"/><circle cx="168.7" cy="106.4" r="1.0" fill="#4b535a" opacity="0.55"/><circle cx="65.0" cy="84.7" r="0.9" fill="#4b535a" opacity="0.55"/><circle cx="162.0" cy="68.2" r="0.9" fill="#c9ced2" opacity="0.55"/><circle cx="118.7" cy="132.8" r="1.5" fill="#2a2e33" opacity="0.55"/><circle cx="164.9" cy="139.2" r="1.1" fill="#c9ced2" opacity="0.55"/><circle cx="127.0" cy="118.1" r="1.1" fill="#c9ced2" opacity="0.55"/><circle cx="177.6" cy="60.0" r="1.2" fill="#c9ced2" opacity="0.55"/><circle cx="143.2" cy="76.4" r="1.9" fill="#2a2e33" opacity="0.55"/><circle cx="92.0" cy="133.7" r="1.0" fill="#4b535a" opacity="0.55"/><circle cx="110.4" cy="114.5" r="0.9" fill="#c9ced2" opacity="0.55"/><circle cx="84.5" cy="107.1" r="1.2" fill="#2a2e33" opacity="0.55"/><circle cx="162.1" cy="131.5" r="1.1" fill="#c9ced2" opacity="0.55"/><circle cx="159.5" cy="76.5" r="1.6" fill="#4b535a" opacity="0.55"/><circle cx="152.6" cy="102.8" r="1.4" fill="#4b535a" opacity="0.55"/><circle cx="105.8" cy="64.2" r="1.9" fill="#2a2e33" opacity="0.55"/><circle cx="176.0" cy="118.0" r="1.2" fill="#c9ced2" opacity="0.55"/><circle cx="128.1" cy="132.7" r="0.8" fill="#2a2e33" opacity="0.55"/><circle cx="117.8" cy="135.9" r="1.5" fill="#c9ced2" opacity="0.55"/><circle cx="157.9" cy="129.8" r="1.3" fill="#4b535a" opacity="0.55"/><circle cx="176.3" cy="100.7" r="1.4" fill="#c9ced2" opacity="0.55"/><circle cx="64.2" cy="122.0" r="1.6" fill="#c9ced2" opacity="0.55"/><circle cx="146.5" cy="119.5" r="1.7" fill="#4b535a" opacity="0.55"/><circle cx="75.7" cy="92.3" r="1.0" fill="#c9ced2" opacity="0.55"/><circle cx="133.5" cy="119.2" r="1.6" fill="#c9ced2" opacity="0.55"/><circle cx="163.4" cy="119.7" r="1.5" fill="#4b535a" opacity="0.55"/><circle cx="123.4" cy="72.1" r="0.9" fill="#c9ced2" opacity="0.55"/><circle cx="164.1" cy="61.5" r="2.0" fill="#c9ced2" opacity="0.55"/><circle cx="88.3" cy="68.9" r="1.6" fill="#4b535a" opacity="0.55"/><circle cx="98.6" cy="141.3" r="0.8" fill="#2a2e33" opacity="0.55"/><circle cx="125.8" cy="134.0" r="1.9" fill="#2a2e33" opacity="0.55"/><circle cx="141.5" cy="95.4" r="0.9" fill="#2a2e33" opacity="0.55"/><circle cx="89.3" cy="118.0" r="0.9" fill="#4b535a" opacity="0.55"/><circle cx="124.5" cy="105.5" r="1.6" fill="#2a2e33" opacity="0.55"/><circle cx="154.7" cy="81.9" r="1.4" fill="#c9ced2" opacity="0.55"/><circle cx="164.3" cy="66.3" r="1.8" fill="#c9ced2" opacity="0.55"/><circle cx="74.9" cy="107.4" r="1.5" fill="#c9ced2" opacity="0.55"/><circle cx="76.2" cy="111.4" r="2.0" fill="#2a2e33" opacity="0.55"/><circle cx="142.1" cy="109.7" r="1.6" fill="#2a2e33" opacity="0.55"/><circle cx="90.0" cy="131.7" r="0.8" fill="#2a2e33" opacity="0.55"/><circle cx="68.9" cy="68.0" r="1.3" fill="#c9ced2" opacity="0.55"/><circle cx="64.4" cy="93.8" r="1.1" fill="#2a2e33" opacity="0.55"/><circle cx="70.8" cy="82.2" r="0.8" fill="#c9ced2" opacity="0.55"/><circle cx="177.6" cy="85.0" r="1.8" fill="#4b535a" opacity="0.55"/><circle cx="129.6" cy="92.5" r="1.1" fill="#c9ced2" opacity="0.55"/><circle cx="173.3" cy="141.7" r="1.5" fill="#2a2e33" opacity="0.55"/><circle cx="78.5" cy="123.6" r="2.0" fill="#c9ced2" opacity="0.55"/><circle cx="72.3" cy="144.8" r="1.4" fill="#2a2e33" opacity="0.55"/><circle cx="172.3" cy="103.2" r="1.5" fill="#2a2e33" opacity="0.55"/><circle cx="111.1" cy="104.9" r="2.0" fill="#2a2e33" opacity="0.55"/><circle cx="90.2" cy="71.2" r="1.5" fill="#c9ced2" opacity="0.55"/><circle cx="150.4" cy="116.0" r="1.7" fill="#2a2e33" opacity="0.55"/><circle cx="153.3" cy="114.5" r="1.5" fill="#4b535a" opacity="0.55"/><circle cx="124.8" cy="83.3" r="1.1" fill="#c9ced2" opacity="0.55"/><circle cx="176.6" cy="134.1" r="1.9" fill="#2a2e33" opacity="0.55"/><circle cx="118.6" cy="124.9" r="1.7" fill="#2a2e33" opacity="0.55"/><circle cx="176.7" cy="119.9" r="1.0" fill="#4b535a" opacity="0.55"/><circle cx="167.7" cy="71.6" r="0.8" fill="#c9ced2" opacity="0.55"/><circle cx="165.9" cy="95.9" r="1.6" fill="#c9ced2" opacity="0.55"/><circle cx="149.2" cy="103.2" r="1.7" fill="#2a2e33" opacity="0.55"/><circle cx="68.9" cy="96.8" r="1.2" fill="#2a2e33" opacity="0.55"/><circle cx="115.2" cy="66.0" r="1.7" fill="#4b535a" opacity="0.55"/><circle cx="108.4" cy="131.5" r="2.0" fill="#c9ced2" opacity="0.55"/><circle cx="97.1" cy="92.4" r="1.5" fill="#4b535a" opacity="0.55"/><circle cx="60.7" cy="73.5" r="1.2" fill="#4b535a" opacity="0.55"/><circle cx="72.4" cy="106.9" r="1.2" fill="#4b535a" opacity="0.55"/><circle cx="134.9" cy="114.4" r="1.5" fill="#c9ced2" opacity="0.55"/><circle cx="65.6" cy="75.0" r="1.5" fill="#2a2e33" opacity="0.55"/><circle cx="167.9" cy="112.4" r="1.3" fill="#c9ced2" opacity="0.55"/><circle cx="132.1" cy="91.4" r="1.4" fill="#2a2e33" opacity="0.55"/><circle cx="133.1" cy="66.9" r="1.5" fill="#c9ced2" opacity="0.55"/><circle cx="156.5" cy="91.8" r="1.6" fill="#4b535a" opacity="0.55"/><circle cx="153.6" cy="125.0" r="0.9" fill="#4b535a" opacity="0.55"/><circle cx="65.8" cy="63.9" r="1.9" fill="#c9ced2" opacity="0.55"/><circle cx="144.8" cy="81.9" r="2.0" fill="#c9ced2" opacity="0.55"/><circle cx="100.7" cy="132.6" r="1.0" fill="#4b535a" opacity="0.55"/><circle cx="64.3" cy="133.8" r="1.3" fill="#2a2e33" opacity="0.55"/><circle cx="65.9" cy="78.3" r="1.5" fill="#c9ced2" opacity="0.55"/><circle cx="72.2" cy="142.6" r="1.3" fill="#4b535a" opacity="0.55"/><circle cx="113.3" cy="94.2" r="2.0" fill="#c9ced2" opacity="0.55"/><circle cx="133.6" cy="136.1" r="1.5" fill="#2a2e33" opacity="0.55"/><circle cx="111.2" cy="128.1" r="1.8" fill="#c9ced2" opacity="0.55"/>
  <!-- eyebrows (bushy, signature) -->
  <path d="M70 104 Q86 84 108 100 Q90 100 78 112 Z" fill="#6b737a"/>
  <path d="M170 104 Q154 84 132 100 Q150 100 162 112 Z" fill="#6b737a"/>
  <!-- eyes -->
  <circle cx="94" cy="108" r="7.5" fill="#23282d"/>
  <circle cx="146" cy="108" r="7.5" fill="#23282d"/>
  <circle cx="96.4" cy="105.6" r="2.2" fill="#ffffff"/>
  <circle cx="148.4" cy="105.6" r="2.2" fill="#ffffff"/>
  <!-- muzzle bridge -->
  <path d="M104 120 L136 120 L132 150 L108 150 Z" fill="#4b535a"/>
  <!-- beard (signature) -->
  <path d="M78 140 Q120 132 162 140 Q170 186 150 210 Q120 226 90 210 Q70 186 78 140 Z" fill="#c9ced2"/>
  <path d="M96 150 Q120 146 144 150 Q150 180 138 198 Q120 210 102 198 Q90 180 96 150 Z" fill="#4b535a" opacity="0.5"/>
  <circle cx="92.3" cy="169.0" r="1.0" fill="#3a4046" opacity="0.55"/><circle cx="137.5" cy="177.7" r="0.9" fill="#3a4046" opacity="0.55"/><circle cx="96.6" cy="206.5" r="1.4" fill="#2a2e33" opacity="0.55"/><circle cx="94.5" cy="176.9" r="1.7" fill="#3a4046" opacity="0.55"/><circle cx="110.8" cy="163.6" r="2.0" fill="#3a4046" opacity="0.55"/><circle cx="136.2" cy="189.7" r="1.7" fill="#2a2e33" opacity="0.55"/><circle cx="139.5" cy="202.2" r="1.4" fill="#3a4046" opacity="0.55"/><circle cx="99.7" cy="172.1" r="1.2" fill="#2a2e33" opacity="0.55"/><circle cx="117.4" cy="158.6" r="0.8" fill="#2a2e33" opacity="0.55"/><circle cx="153.2" cy="156.8" r="1.1" fill="#2a2e33" opacity="0.55"/><circle cx="107.7" cy="194.4" r="0.8" fill="#3a4046" opacity="0.55"/><circle cx="156.9" cy="178.1" r="2.1" fill="#3a4046" opacity="0.55"/><circle cx="128.6" cy="195.2" r="2.0" fill="#3a4046" opacity="0.55"/><circle cx="152.7" cy="206.3" r="1.8" fill="#3a4046" opacity="0.55"/><circle cx="131.8" cy="202.3" r="0.8" fill="#3a4046" opacity="0.55"/><circle cx="112.4" cy="174.3" r="1.1" fill="#2a2e33" opacity="0.55"/><circle cx="144.0" cy="199.1" r="1.5" fill="#3a4046" opacity="0.55"/><circle cx="139.4" cy="191.4" r="1.4" fill="#3a4046" opacity="0.55"/><circle cx="155.2" cy="196.4" r="1.0" fill="#3a4046" opacity="0.55"/><circle cx="94.5" cy="181.8" r="1.4" fill="#3a4046" opacity="0.55"/><circle cx="90.7" cy="155.6" r="1.4" fill="#2a2e33" opacity="0.55"/><circle cx="138.7" cy="162.5" r="2.0" fill="#2a2e33" opacity="0.55"/><circle cx="100.6" cy="158.6" r="0.9" fill="#2a2e33" opacity="0.55"/><circle cx="119.7" cy="194.8" r="2.1" fill="#3a4046" opacity="0.55"/><circle cx="135.8" cy="188.7" r="1.7" fill="#2a2e33" opacity="0.55"/><circle cx="106.0" cy="196.8" r="1.2" fill="#2a2e33" opacity="0.55"/><circle cx="120.4" cy="165.4" r="1.8" fill="#2a2e33" opacity="0.55"/><circle cx="139.3" cy="193.0" r="1.0" fill="#3a4046" opacity="0.55"/><circle cx="122.2" cy="204.1" r="1.3" fill="#2a2e33" opacity="0.55"/><circle cx="122.8" cy="156.3" r="1.4" fill="#2a2e33" opacity="0.55"/><circle cx="132.3" cy="193.0" r="0.9" fill="#2a2e33" opacity="0.55"/><circle cx="92.8" cy="177.5" r="1.4" fill="#2a2e33" opacity="0.55"/><circle cx="123.7" cy="185.2" r="1.0" fill="#3a4046" opacity="0.55"/><circle cx="114.9" cy="170.1" r="1.9" fill="#2a2e33" opacity="0.55"/><circle cx="146.0" cy="187.4" r="1.5" fill="#3a4046" opacity="0.55"/><circle cx="105.1" cy="160.0" r="0.9" fill="#2a2e33" opacity="0.55"/><circle cx="105.3" cy="180.5" r="1.1" fill="#3a4046" opacity="0.55"/><circle cx="152.3" cy="159.7" r="1.2" fill="#2a2e33" opacity="0.55"/><circle cx="145.5" cy="176.3" r="1.3" fill="#3a4046" opacity="0.55"/><circle cx="148.8" cy="185.5" r="1.6" fill="#3a4046" opacity="0.55"/>
  <!-- nose -->
  <path d="M108 138 Q120 132 132 138 Q134 150 120 154 Q106 150 108 138 Z" fill="#1c1f23"/>
  <ellipse cx="114" cy="143" rx="2.4" ry="1.6" fill="#3a3f45"/>
  <ellipse cx="126" cy="143" rx="2.4" ry="1.6" fill="#3a3f45"/>
  <!-- mouth hint -->
  <path d="M120 154 L120 164 M120 164 Q110 170 102 166 M120 164 Q130 170 138 166" stroke="#23282d" stroke-width="1.6" fill="none" stroke-linecap="round" opacity="0.6"/>
</g></svg>