<svg xmlns="http://www.w3.org/2000/svg" viewBox="0 0 240 240" role="img" aria-label="A Miniature Schnauzer being groomed, showing its wiry double coat and beard"><title>A Miniature Schnauzer being groomed, showing its wiry double coat and beard</title>
<rect width="240" height="240" rx="16" fill="#f0f4f4"/>
<g transform="translate(6,4) scale(0.92)"><g>
  <!-- ears -->
  <path d="M52 60 L44 24 Q66 30 78 58 Z" fill="#5b636b"/>
  <path d="M188 60 L196 24 Q174 30 162 58 Z" fill="#5b636b"/>
  <path d="M55 58 L50 34 Q64 40 74 58 Z" fill="#7c858e"/>
  <path d="M185 58 L190 34 Q176 40 166 58 Z" fill="#7c858e"/>
  <!-- head -->
  <path d="M120 40 C168 40 190 74 190 118 C190 150 176 168 158 178
           L82 178 C64 168 50 150 50 118 C50 74 72 40 120 40 Z" fill="#7c858e"/>
  <!-- crown shading -->
  <path d="M120 40 C168 40 190 74 190 112 C176 96 150 88 120 88
           C90 88 64 96 50 112 C50 74 72 40 120 40 Z" fill="#5b636b"/>
  <circle cx="115.6" cy="88.6" r="1.0" fill="#5b636b" opacity="0.55"/><circle cx="60.8" cy="100.3" r="2.0" fill="#a7afb6" opacity="0.55"/><circle cx="100.1" cy="139.3" r="1.7" fill="#5b636b" opacity="0.55"/><circle cx="105.5" cy="118.3" r="1.4" fill="#5b636b" opacity="0.55"/><circle cx="110.7" cy="70.2" r="0.9" fill="#a7afb6" opacity="0.55"/><circle cx="120.8" cy="138.1" r="1.6" fill="#5b636b" opacity="0.55"/><circle cx="106.0" cy="122.1" r="0.9" fill="#e9ecee" opacity="0.55"/><circle cx="84.6" cy="75.2" r="1.8" fill="#a7afb6" opacity="0.55"/><circle cx="152.7" cy="137.0" r="1.3" fill="#e9ecee" opacity="0.55"/><circle cx="157.1" cy="73.0" r="2.0" fill="#e9ecee" opacity="0.55"/><circle cx="66.6" cy="89.1" r="1.4" fill="#a7afb6" opacity="0.55"/><circle cx="88.4" cy="121.3" r="1.9" fill="#5b636b" opacity="0.55"/><circle cx="60.5" cy="123.8" r="1.1" fill="#a7afb6" opacity="0.55"/><circle cx="99.6" cy="135.3" r="1.0" fill="#a7afb6" opacity="0.55"/><circle cx="120.1" cy="106.6" r="1.5" fill="#a7afb6" opacity="0.55"/><circle cx="110.4" cy="90.8" r="1.6" fill="#a7afb6" opacity="0.55"/><circle cx="144.1" cy="68.1" r="2.0" fill="#5b636b" opacity="0.55"/><circle cx="175.0" cy="59.9" r="1.5" fill="#5b636b" opacity="0.55"/><circle cx="162.2" cy="122.1" r="1.8" fill="#5b636b" opacity="0.55"/><circle cx="179.8" cy="65.9" r="1.7" fill="#a7afb6" opacity="0.55"/><circle cx="79.4" cy="100.4" r="1.8" fill="#5b636b" opacity="0.55"/><circle cx="122.6" cy="105.9" r="1.7" fill="#e9ecee" opacity="0.55"/><circle cx="73.2" cy="134.4" r="1.3" fill="#a7afb6" opacity="0.55"/><circle cx="108.3" cy="143.7" r="1.5" fill="#a7afb6" opacity="0.55"/><circle cx="105.5" cy="109.7" r="0.8" fill="#a7afb6" opacity="0.55"/><circle cx="85.6" cy="95.0" r="1.2" fill="#a7afb6" opacity="0.55"/><circle cx="96.9" cy="80.6" r="1.5" fill="#a7afb6" opacity="0.55"/><circle cx="63.0" cy="125.3" r="1.8" fill="#e9ecee" opacity="0.55"/><circle cx="101.5" cy="125.0" r="1.5" fill="#a7afb6" opacity="0.55"/><circle cx="111.0" cy="75.8" r="2.1" fill="#e9ecee" opacity="0.55"/><circle cx="121.2" cy="141.0" r="1.5" fill="#a7afb6" opacity="0.55"/><circle cx="140.1" cy="70.4" r="1.9" fill="#e9ecee" opacity="0.55"/><circle cx="63.5" cy="139.6" r="1.9" fill="#e9ecee" opacity="0.55"/><circle cx="173.6" cy="143.8" r="1.6" fill="#a7afb6" opacity="0.55"/><circle cx="65.9" cy="95.5" r="1.8" fill="#e9ecee" opacity="0.55"/><circle cx="133.4" cy="142.0" r="1.3" fill="#a7afb6" opacity="0.55"/><circle cx="117.7" cy="80.0" r="2.1" fill="#5b636b" opacity="0.55"/><circle cx="126.7" cy="117.6" r="0.9" fill="#e9ecee" opacity="0.55"/><circle cx="77.1" cy="105.6" r="1.8" fill="#5b636b" opacity="0.55"/><circle cx="166.5" cy="70.2" r="1.7" fill="#5b636b" opacity="0.55"/><circle cx="165.6" cy="99.5" r="0.9" fill="#a7afb6" opacity="0.55"/><circle cx="93.2" cy="66.6" r="1.8" fill="#a7afb6" opacity="0.55"/><circle cx="79.5" cy="126.1" r="1.9" fill="#a7afb6" opacity="0.55"/><circle cx="81.1" cy="96.1" r="1.5" fill="#e9ecee" opacity="0.55"/><circle cx="70.0" cy="104.4" r="1.6" fill="#e9ecee" opacity="0.55"/><circle cx="124.3" cy="139.7" r="0.8" fill="#5b636b" opacity="0.55"/><circle cx="166.7" cy="104.0" r="1.5" fill="#5b636b" opacity="0.55"/><circle cx="137.0" cy="126.7" r="1.9" fill="#5b636b" opacity="0.55"/><circle cx="125.1" cy="82.0" r="1.7" fill="#5b636b" opacity="0.55"/><circle cx="76.5" cy="64.0" r="1.4" fill="#a7afb6" opacity="0.55"/><circle cx="118.8" cy="112.3" r="0.9" fill="#5b636b" opacity="0.55"/><circle cx="63.5" cy="76.9" r="1.4" fill="#e9ecee" opacity="0.55"/><circle cx="158.8" cy="120.7" r="1.6" fill="#a7afb6" opacity="0.55"/><circle cx="64.3" cy="108.7" r="1.6" fill="#5b636b" opacity="0.55"/><circle cx="109.2" cy="108.0" r="0.9" fill="#a7afb6" opacity="0.55"/><circle cx="133.0" cy="71.3" r="0.9" fill="#e9ecee" opacity="0.55"/><circle cx="135.0" cy="104.2" r="1.4" fill="#5b636b" opacity="0.55"/><circle cx="153.1" cy="85.0" r="1.8" fill="#a7afb6" opacity="0.55"/><circle cx="115.7" cy="95.4" r="1.0" fill="#e9ecee" opacity="0.55"/><circle cx="178.4" cy="130.0" r="0.9" fill="#e9ecee" opacity="0.55"/><circle cx="140.5" cy="95.6" r="1.0" fill="#a7afb6" opacity="0.55"/><circle cx="73.1" cy="59.7" r="0.9" fill="#5b636b" opacity="0.55"/><circle cx="177.1" cy="88.5" r="1.8" fill="#e9ecee" opacity="0.55"/><circle cx="135.2" cy="73.1" r="1.9" fill="#a7afb6" opacity="0.55"/><circle cx="88.3" cy="78.1" r="1.5" fill="#a7afb6" opacity="0.55"/><circle cx="61.9" cy="77.8" r="1.6" fill="#a7afb6" opacity="0.55"/><circle cx="122.3" cy="92.5" r="2.0" fill="#e9ecee" opacity="0.55"/><circle cx="162.2" cy="109.5" r="1.1" fill="#a7afb6" opacity="0.55"/><circle cx="141.7" cy="66.9" r="0.9" fill="#a7afb6" opacity="0.55"/><circle cx="177.1" cy="125.8" r="2.0" fill="#a7afb6" opacity="0.55"/><circle cx="165.2" cy="137.8" r="2.1" fill="#a7afb6" opacity="0.55"/><circle cx="63.5" cy="94.5" r="1.3" fill="#e9ecee" opacity="0.55"/><circle cx="119.0" cy="86.2" r="1.9" fill="#e9ecee" opacity="0.55"/><circle cx="111.6" cy="62.1" r="1.2" fill="#e9ecee" opacity="0.55"/><circle cx="133.3" cy="106.2" r="1.4" fill="#a7afb6" opacity="0.55"/><circle cx="99.5" cy="60.3" r="0.9" fill="#e9ecee" opacity="0.55"/><circle cx="125.3" cy="72.0" r="1.7" fill="#5b636b" opacity="0.55"/><circle cx="167.6" cy="139.9" r="0.9" fill="#e9ecee" opacity="0.55"/><circle cx="175.5" cy="109.0" r="2.0" fill="#5b636b" opacity="0.55"/><circle cx="148.0" cy="74.0" r="1.5" fill="#e9ecee" opacity="0.55"/><circle cx="69.1" cy="115.3" r="1.3" fill="#a7afb6" opacity="0.55"/><circle cx="164.0" cy="84.1" r="1.9" fill="#5b636b" opacity="0.55"/><circle cx="120.3" cy="96.7" r="0.8" fill="#5b636b" opacity="0.55"/><circle cx="84.6" cy="75.1" r="2.1" fill="#e9ecee" opacity="0.55"/><circle cx="65.0" cy="68.4" r="1.0" fill="#a7afb6" opacity="0.55"/><circle cx="121.2" cy="126.1" r="1.3" fill="#e9ecee" opacity="0.55"/><circle cx="106.7" cy="107.8" r="1.9" fill="#5b636b" opacity="0.55"/><circle cx="142.8" cy="87.3" r="1.2" fill="#e9ecee" opacity="0.55"/><circle cx="169.8" cy="106.1" r="1.8" fill="#a7afb6" opacity="0.55"/><circle cx="128.5" cy="55.9" r="1.7" fill="#a7afb6" opacity="0.55"/>
  <!-- eyebrows (bushy, signature) -->
  <path d="M70 104 Q86 84 108 100 Q90 100 78 112 Z" fill="#c3cace"/>
  <path d="M170 104 Q154 84 132 100 Q150 100 162 112 Z" fill="#c3cace"/>
  <!-- eyes -->
  <circle cx="94" cy="108" r="7.5" fill="#23282d"/>
  <circle cx="146" cy="108" r="7.5" fill="#23282d"/>
  <circle cx="96.4" cy="105.6" r="2.2" fill="#ffffff"/>
  <circle cx="148.4" cy="105.6" r="2.2" fill="#ffffff"/>
  <!-- muzzle bridge -->
  <path d="M104 120 L136 120 L132 150 L108 150 Z" fill="#a7afb6"/>
  <!-- beard (signature) -->
  <path d="M78 140 Q120 132 162 140 Q170 186 150 210 Q120 226 90 210 Q70 186 78 140 Z" fill="#e9ecee"/>
  <path d="M96 150 Q120 146 144 150 Q150 180 138 198 Q120 210 102 198 Q90 180 96 150 Z" fill="#a7afb6" opacity="0.5"/>
  <circle cx="109.2" cy="176.8" r="1.3" fill="#5b636b" opacity="0.55"/><circle cx="81.5" cy="199.2" r="1.7" fill="#7c858e" opacity="0.55"/><circle cx="130.5" cy="148.6" r="1.2" fill="#5b636b" opacity="0.55"/><circle cx="133.0" cy="205.1" r="1.6" fill="#7c858e" opacity="0.55"/><circle cx="142.6" cy="205.4" r="1.1" fill="#7c858e" opacity="0.55"/><circle cx="144.0" cy="188.0" r="0.8" fill="#5b636b" opacity="0.55"/><circle cx="127.7" cy="190.2" r="2.1" fill="#5b636b" opacity="0.55"/><circle cx="109.2" cy="173.2" r="0.9" fill="#5b636b" opacity="0.55"/><circle cx="114.0" cy="186.6" r="2.0" fill="#5b636b" opacity="0.55"/><circle cx="126.1" cy="165.0" r="0.9" fill="#7c858e" opacity="0.55"/><circle cx="121.8" cy="162.1" r="1.0" fill="#5b636b" opacity="0.55"/><circle cx="105.7" cy="175.2" r="1.0" fill="#5b636b" opacity="0.55"/><circle cx="137.8" cy="148.8" r="1.9" fill="#5b636b" opacity="0.55"/><circle cx="82.1" cy="198.4" r="1.7" fill="#7c858e" opacity="0.55"/><circle cx="116.4" cy="184.8" r="1.4" fill="#7c858e" opacity="0.55"/><circle cx="156.5" cy="190.4" r="2.0" fill="#5b636b" opacity="0.55"/><circle cx="83.6" cy="150.6" r="1.6" fill="#5b636b" opacity="0.55"/><circle cx="118.2" cy="188.1" r="1.9" fill="#7c858e" opacity="0.55"/><circle cx="98.8" cy="154.1" r="0.9" fill="#7c858e" opacity="0.55"/><circle cx="100.0" cy="171.7" r="0.9" fill="#7c858e" opacity="0.55"/><circle cx="138.6" cy="150.9" r="1.9" fill="#5b636b" opacity="0.55"/><circle cx="92.9" cy="186.3" r="1.1" fill="#7c858e" opacity="0.55"/><circle cx="126.4" cy="162.3" r="1.1" fill="#7c858e" opacity="0.55"/><circle cx="89.1" cy="156.8" r="1.3" fill="#7c858e" opacity="0.55"/><circle cx="112.6" cy="201.0" r="1.4" fill="#5b636b" opacity="0.55"/><circle cx="84.0" cy="149.8" r="1.1" fill="#5b636b" opacity="0.55"/><circle cx="153.1" cy="178.2" r="0.9" fill="#7c858e" opacity="0.55"/><circle cx="89.9" cy="186.0" r="1.2" fill="#5b636b" opacity="0.55"/><circle cx="114.9" cy="198.4" r="1.1" fill="#7c858e" opacity="0.55"/><circle cx="149.3" cy="174.0" r="1.1" fill="#7c858e" opacity="0.55"/><circle cx="109.3" cy="177.8" r="1.0" fill="#5b636b" opacity="0.55"/><circle cx="97.3" cy="173.6" r="0.8" fill="#5b636b" opacity="0.55"/><circle cx="125.7" cy="206.5" r="1.9" fill="#5b636b" opacity="0.55"/><circle cx="138.5" cy="162.5" r="1.6" fill="#7c858e" opacity="0.55"/><circle cx="127.0" cy="178.1" r="1.4" fill="#7c858e" opacity="0.55"/><circle cx="140.5" cy="207.5" r="0.9" fill="#5b636b" opacity="0.55"/><circle cx="85.5" cy="152.8" r="1.4" fill="#7c858e" opacity="0.55"/><circle cx="121.0" cy="179.9" r="0.9" fill="#5b636b" opacity="0.55"/><circle cx="112.4" cy="171.5" r="1.1" fill="#5b636b" opacity="0.55"/><circle cx="97.4" cy="148.8" r="0.8" fill="#5b636b" opacity="0.55"/>
  <!-- nose -->
  <path d="M108 138 Q120 132 132 138 Q134 150 120 154 Q106 150 108 138 Z" fill="#1c1f23"/>
  <ellipse cx="114" cy="143" rx="2.4" ry="1.6" fill="#3a3f45"/>
  <ellipse cx="126" cy="143" rx="2.4" ry="1.6" fill="#3a3f45"/>
  <!-- mouth hint -->
  <path d="M120 154 L120 164 M120 164 Q110 170 102 166 M120 164 Q130 170 138 166" stroke="#23282d" stroke-width="1.6" fill="none" stroke-linecap="round" opacity="0.6"/>
</g></g>
<g transform="translate(150,150) rotate(28)">
  <rect x="0" y="0" width="70" height="26" rx="10" fill="#8a5a2b"/>
  <rect x="60" y="2" width="46" height="22" rx="8" fill="#b98a4e"/>
  <g fill="#5b636b">
    <rect x="6" y="26" width="3" height="12" rx="1.5"/><rect x="13" y="26" width="3" height="12" rx="1.5"/><rect x="20" y="26" width="3" height="12" rx="1.5"/><rect x="27" y="26" width="3" height="12" rx="1.5"/><rect x="34" y="26" width="3" height="12" rx="1.5"/><rect x="41" y="26" width="3" height="12" rx="1.5"/><rect x="48" y="26" width="3" height="12" rx="1.5"/><rect x="55" y="26" width="3" height="12" rx="1.5"/>
  </g>
</g></svg>