<svg xmlns="http://www.w3.org/2000/svg" viewBox="0 0 420 360" role="img" aria-label="Friendly salt and pepper Miniature Schnauzer, the breed this guide is about"><title>Friendly salt and pepper Miniature Schnauzer, the breed this guide is about</title>
<defs>
  <linearGradient id="sky" x1="0" y1="0" x2="0" y2="1">
    <stop offset="0" stop-color="#eef3f3"/><stop offset="1" stop-color="#dfe8e8"/>
  </linearGradient>
</defs>
<rect width="420" height="360" rx="24" fill="url(#sky)"/>
<circle cx="210" cy="150" r="118" fill="#ffffff" opacity="0.55"/>
<ellipse cx="210" cy="312" rx="120" ry="18" fill="#0f6b70" opacity="0.10"/>
<g transform="translate(90,44) scale(1.0)"><g>
  <!-- ears -->
  <path d="M52 60 L44 24 Q66 30 78 58 Z" fill="#5b636b"/>
  <path d="M188 60 L196 24 Q174 30 162 58 Z" fill="#5b636b"/>
  <path d="M55 58 L50 34 Q64 40 74 58 Z" fill="#7c858e"/>
  <path d="M185 58 L190 34 Q176 40 166 58 Z" fill="#7c858e"/>
  <!-- head -->
  <path d="M120 40 C168 40 190 74 190 118 C190 150 176 168 158 178
           L82 178 C64 168 50 150 50 118 C50 74 72 40 120 40 Z" fill="#7c858e"/>
  <!-- crown shading -->
  <path d="M120 40 C168 40 190 74 190 112 C176 96 150 88 120 88
           C90 88 64 96 50 112 C50 74 72 40 120 40 Z" fill="#5b636b"/>
  <circle cx="134.7" cy="121.8" r="1.8" fill="#5b636b" opacity="0.55"/><circle cx="138.2" cy="102.7" r="1.9" fill="#a7afb6" opacity="0.55"/><circle cx="137.9" cy="136.1" r="0.9" fill="#e9ecee" opacity="0.55"/><circle cx="164.2" cy="89.3" r="0.9" fill="#a7afb6" opacity="0.55"/><circle cx="61.6" cy="74.5" r="1.2" fill="#e9ecee" opacity="0.55"/><circle cx="79.2" cy="126.7" r="1.0" fill="#5b636b" opacity="0.55"/><circle cx="113.4" cy="66.9" r="2.1" fill="#a7afb6" opacity="0.55"/><circle cx="85.1" cy="74.4" r="2.1" fill="#a7afb6" opacity="0.55"/><circle cx="94.7" cy="141.5" r="1.5" fill="#5b636b" opacity="0.55"/><circle cx="135.1" cy="71.4" r="2.1" fill="#a7afb6" opacity="0.55"/><circle cx="176.0" cy="135.4" r="1.2" fill="#e9ecee" opacity="0.55"/><circle cx="109.8" cy="139.2" r="1.1" fill="#e9ecee" opacity="0.55"/><circle cx="96.2" cy="109.3" r="0.8" fill="#5b636b" opacity="0.55"/><circle cx="144.9" cy="60.9" r="1.3" fill="#e9ecee" opacity="0.55"/><circle cx="117.7" cy="83.4" r="1.4" fill="#5b636b" opacity="0.55"/><circle cx="81.1" cy="78.1" r="2.0" fill="#5b636b" opacity="0.55"/><circle cx="102.9" cy="91.4" r="1.5" fill="#e9ecee" opacity="0.55"/><circle cx="103.9" cy="107.1" r="0.8" fill="#a7afb6" opacity="0.55"/><circle cx="144.9" cy="111.1" r="2.0" fill="#a7afb6" opacity="0.55"/><circle cx="150.7" cy="138.7" r="2.0" fill="#e9ecee" opacity="0.55"/><circle cx="121.5" cy="135.3" r="1.1" fill="#e9ecee" opacity="0.55"/><circle cx="73.0" cy="122.4" r="1.8" fill="#e9ecee" opacity="0.55"/><circle cx="64.4" cy="140.1" r="0.9" fill="#e9ecee" opacity="0.55"/><circle cx="121.5" cy="87.6" r="1.0" fill="#e9ecee" opacity="0.55"/><circle cx="170.9" cy="104.1" r="1.2" fill="#e9ecee" opacity="0.55"/><circle cx="96.7" cy="126.9" r="1.6" fill="#5b636b" opacity="0.55"/><circle cx="142.7" cy="144.7" r="1.0" fill="#a7afb6" opacity="0.55"/><circle cx="69.7" cy="109.1" r="2.0" fill="#a7afb6" opacity="0.55"/><circle cx="88.5" cy="108.5" r="1.9" fill="#e9ecee" opacity="0.55"/><circle cx="138.1" cy="68.1" r="2.1" fill="#5b636b" opacity="0.55"/><circle cx="63.9" cy="99.4" r="1.9" fill="#a7afb6" opacity="0.55"/><circle cx="177.8" cy="105.8" r="1.0" fill="#e9ecee" opacity="0.55"/><circle cx="72.8" cy="94.1" r="1.0" fill="#e9ecee" opacity="0.55"/><circle cx="95.4" cy="95.8" r="2.1" fill="#a7afb6" opacity="0.55"/><circle cx="177.1" cy="95.8" r="1.4" fill="#5b636b" opacity="0.55"/><circle cx="98.1" cy="79.7" r="1.4" fill="#a7afb6" opacity="0.55"/><circle cx="73.5" cy="129.0" r="1.5" fill="#a7afb6" opacity="0.55"/><circle cx="135.2" cy="99.9" r="1.2" fill="#a7afb6" opacity="0.55"/><circle cx="119.0" cy="101.4" r="1.5" fill="#5b636b" opacity="0.55"/><circle cx="103.4" cy="125.7" r="1.8" fill="#5b636b" opacity="0.55"/><circle cx="130.5" cy="58.1" r="1.2" fill="#5b636b" opacity="0.55"/><circle cx="144.5" cy="80.3" r="1.4" fill="#5b636b" opacity="0.55"/><circle cx="145.9" cy="141.1" r="1.2" fill="#a7afb6" opacity="0.55"/><circle cx="129.7" cy="56.0" r="1.5" fill="#e9ecee" opacity="0.55"/><circle cx="99.1" cy="79.6" r="1.2" fill="#5b636b" opacity="0.55"/><circle cx="137.7" cy="126.8" r="1.3" fill="#5b636b" opacity="0.55"/><circle cx="101.5" cy="139.4" r="1.3" fill="#a7afb6" opacity="0.55"/><circle cx="164.4" cy="117.0" r="2.1" fill="#e9ecee" opacity="0.55"/><circle cx="122.2" cy="102.6" r="1.0" fill="#e9ecee" opacity="0.55"/><circle cx="172.5" cy="98.0" r="1.7" fill="#5b636b" opacity="0.55"/><circle cx="140.5" cy="92.5" r="1.6" fill="#5b636b" opacity="0.55"/><circle cx="122.0" cy="139.3" r="1.2" fill="#5b636b" opacity="0.55"/><circle cx="153.0" cy="112.3" r="1.7" fill="#a7afb6" opacity="0.55"/><circle cx="83.5" cy="107.8" r="1.6" fill="#a7afb6" opacity="0.55"/><circle cx="86.3" cy="116.7" r="1.6" fill="#a7afb6" opacity="0.55"/><circle cx="178.4" cy="143.2" r="1.0" fill="#a7afb6" opacity="0.55"/><circle cx="73.3" cy="142.1" r="1.4" fill="#5b636b" opacity="0.55"/><circle cx="64.3" cy="96.9" r="1.3" fill="#5b636b" opacity="0.55"/><circle cx="68.6" cy="73.4" r="1.7" fill="#e9ecee" opacity="0.55"/><circle cx="60.1" cy="91.5" r="1.2" fill="#e9ecee" opacity="0.55"/><circle cx="164.0" cy="117.0" r="1.5" fill="#a7afb6" opacity="0.55"/><circle cx="126.0" cy="82.1" r="1.2" fill="#5b636b" opacity="0.55"/><circle cx="100.7" cy="107.3" r="2.0" fill="#a7afb6" opacity="0.55"/><circle cx="110.3" cy="128.2" r="1.6" fill="#e9ecee" opacity="0.55"/><circle cx="116.1" cy="69.1" r="1.3" fill="#e9ecee" opacity="0.55"/><circle cx="174.9" cy="142.1" r="1.6" fill="#e9ecee" opacity="0.55"/><circle cx="158.5" cy="114.5" r="1.3" fill="#e9ecee" opacity="0.55"/><circle cx="127.9" cy="110.4" r="1.0" fill="#5b636b" opacity="0.55"/><circle cx="165.2" cy="105.8" r="1.4" fill="#a7afb6" opacity="0.55"/><circle cx="119.2" cy="98.2" r="1.7" fill="#e9ecee" opacity="0.55"/><circle cx="175.3" cy="137.2" r="1.6" fill="#e9ecee" opacity="0.55"/><circle cx="148.9" cy="82.1" r="1.1" fill="#a7afb6" opacity="0.55"/><circle cx="98.3" cy="143.6" r="1.4" fill="#e9ecee" opacity="0.55"/><circle cx="77.2" cy="57.1" r="1.7" fill="#e9ecee" opacity="0.55"/><circle cx="89.5" cy="58.6" r="1.0" fill="#e9ecee" opacity="0.55"/><circle cx="61.6" cy="102.9" r="1.2" fill="#e9ecee" opacity="0.55"/><circle cx="153.8" cy="77.1" r="1.1" fill="#a7afb6" opacity="0.55"/><circle cx="146.6" cy="80.7" r="1.4" fill="#e9ecee" opacity="0.55"/><circle cx="122.2" cy="132.7" r="1.9" fill="#a7afb6" opacity="0.55"/><circle cx="61.9" cy="66.3" r="1.2" fill="#5b636b" opacity="0.55"/><circle cx="100.3" cy="81.7" r="1.5" fill="#e9ecee" opacity="0.55"/><circle cx="102.0" cy="116.4" r="1.9" fill="#a7afb6" opacity="0.55"/><circle cx="64.4" cy="77.7" r="1.4" fill="#a7afb6" opacity="0.55"/><circle cx="166.6" cy="104.1" r="0.8" fill="#e9ecee" opacity="0.55"/><circle cx="131.4" cy="117.0" r="2.0" fill="#5b636b" opacity="0.55"/><circle cx="117.8" cy="137.1" r="1.3" fill="#e9ecee" opacity="0.55"/><circle cx="141.9" cy="119.8" r="2.0" fill="#e9ecee" opacity="0.55"/><circle cx="159.6" cy="60.9" r="1.9" fill="#5b636b" opacity="0.55"/><circle cx="153.5" cy="107.4" r="1.6" fill="#e9ecee" opacity="0.55"/><circle cx="169.3" cy="67.8" r="1.4" fill="#5b636b" opacity="0.55"/>
  <!-- eyebrows (bushy, signature) -->
  <path d="M70 104 Q86 84 108 100 Q90 100 78 112 Z" fill="#c3cace"/>
  <path d="M170 104 Q154 84 132 100 Q150 100 162 112 Z" fill="#c3cace"/>
  <!-- eyes -->
  <circle cx="94" cy="108" r="7.5" fill="#23282d"/>
  <circle cx="146" cy="108" r="7.5" fill="#23282d"/>
  <circle cx="96.4" cy="105.6" r="2.2" fill="#ffffff"/>
  <circle cx="148.4" cy="105.6" r="2.2" fill="#ffffff"/>
  <!-- muzzle bridge -->
  <path d="M104 120 L136 120 L132 150 L108 150 Z" fill="#a7afb6"/>
  <!-- beard (signature) -->
  <path d="M78 140 Q120 132 162 140 Q170 186 150 210 Q120 226 90 210 Q70 186 78 140 Z" fill="#e9ecee"/>
  <path d="M96 150 Q120 146 144 150 Q150 180 138 198 Q120 210 102 198 Q90 180 96 150 Z" fill="#a7afb6" opacity="0.5"/>
  <circle cx="118.0" cy="187.4" r="1.7" fill="#7c858e" opacity="0.55"/><circle cx="110.8" cy="207.8" r="1.4" fill="#5b636b" opacity="0.55"/><circle cx="134.9" cy="184.1" r="1.5" fill="#7c858e" opacity="0.55"/><circle cx="157.3" cy="170.1" r="1.2" fill="#7c858e" opacity="0.55"/><circle cx="85.6" cy="197.1" r="0.9" fill="#5b636b" opacity="0.55"/><circle cx="134.2" cy="195.9" r="0.9" fill="#7c858e" opacity="0.55"/><circle cx="144.9" cy="187.7" r="1.1" fill="#5b636b" opacity="0.55"/><circle cx="154.8" cy="154.8" r="1.4" fill="#7c858e" opacity="0.55"/><circle cx="123.1" cy="200.9" r="1.5" fill="#7c858e" opacity="0.55"/><circle cx="124.3" cy="178.4" r="0.9" fill="#5b636b" opacity="0.55"/><circle cx="133.1" cy="176.2" r="1.6" fill="#7c858e" opacity="0.55"/><circle cx="131.0" cy="153.0" r="1.0" fill="#5b636b" opacity="0.55"/><circle cx="108.8" cy="169.8" r="1.7" fill="#5b636b" opacity="0.55"/><circle cx="89.9" cy="162.1" r="1.3" fill="#7c858e" opacity="0.55"/><circle cx="83.2" cy="197.4" r="1.4" fill="#7c858e" opacity="0.55"/><circle cx="98.3" cy="173.6" r="1.3" fill="#7c858e" opacity="0.55"/><circle cx="139.8" cy="161.2" r="0.9" fill="#5b636b" opacity="0.55"/><circle cx="83.9" cy="164.6" r="1.2" fill="#7c858e" opacity="0.55"/><circle cx="121.1" cy="170.1" r="1.2" fill="#5b636b" opacity="0.55"/><circle cx="118.1" cy="205.5" r="1.4" fill="#7c858e" opacity="0.55"/><circle cx="117.2" cy="180.9" r="1.0" fill="#7c858e" opacity="0.55"/><circle cx="152.1" cy="148.4" r="1.1" fill="#5b636b" opacity="0.55"/><circle cx="95.0" cy="195.7" r="1.5" fill="#7c858e" opacity="0.55"/><circle cx="129.3" cy="207.0" r="2.1" fill="#7c858e" opacity="0.55"/><circle cx="82.9" cy="167.3" r="1.8" fill="#5b636b" opacity="0.55"/><circle cx="130.9" cy="161.8" r="1.5" fill="#5b636b" opacity="0.55"/><circle cx="119.2" cy="169.2" r="1.7" fill="#5b636b" opacity="0.55"/><circle cx="150.8" cy="157.7" r="1.2" fill="#7c858e" opacity="0.55"/><circle cx="102.7" cy="204.6" r="1.5" fill="#5b636b" opacity="0.55"/><circle cx="136.0" cy="160.8" r="1.2" fill="#5b636b" opacity="0.55"/><circle cx="83.2" cy="148.2" r="0.8" fill="#5b636b" opacity="0.55"/><circle cx="113.8" cy="162.5" r="1.4" fill="#7c858e" opacity="0.55"/><circle cx="124.7" cy="185.5" r="2.0" fill="#5b636b" opacity="0.55"/><circle cx="140.3" cy="173.1" r="1.6" fill="#5b636b" opacity="0.55"/><circle cx="142.6" cy="182.8" r="1.3" fill="#5b636b" opacity="0.55"/><circle cx="130.8" cy="171.1" r="1.0" fill="#7c858e" opacity="0.55"/><circle cx="151.5" cy="195.9" r="2.0" fill="#5b636b" opacity="0.55"/><circle cx="122.7" cy="195.3" r="1.3" fill="#7c858e" opacity="0.55"/><circle cx="136.4" cy="159.3" r="1.2" fill="#5b636b" opacity="0.55"/><circle cx="129.5" cy="155.5" r="1.5" fill="#5b636b" opacity="0.55"/>
  <!-- nose -->
  <path d="M108 138 Q120 132 132 138 Q134 150 120 154 Q106 150 108 138 Z" fill="#1c1f23"/>
  <ellipse cx="114" cy="143" rx="2.4" ry="1.6" fill="#3a3f45"/>
  <ellipse cx="126" cy="143" rx="2.4" ry="1.6" fill="#3a3f45"/>
  <!-- mouth hint -->
  <path d="M120 154 L120 164 M120 164 Q110 170 102 166 M120 164 Q130 170 138 166" stroke="#23282d" stroke-width="1.6" fill="none" stroke-linecap="round" opacity="0.6"/>
</g></g>
</svg>