<svg xmlns="http://www.w3.org/2000/svg" viewBox="0 0 240 240" role="img" aria-label="Illustration of a black and silver Miniature Schnauzer"><title>Illustration of a black and silver Miniature Schnauzer</title><g>
  <!-- ears -->
  <path d="M52 60 L44 24 Q66 30 78 58 Z" fill="#2c3035"/>
  <path d="M188 60 L196 24 Q174 30 162 58 Z" fill="#2c3035"/>
  <path d="M55 58 L50 34 Q64 40 74 58 Z" fill="#3d444b"/>
  <path d="M185 58 L190 34 Q176 40 166 58 Z" fill="#3d444b"/>
  <!-- head -->
  <path d="M120 40 C168 40 190 74 190 118 C190 150 176 168 158 178
           L82 178 C64 168 50 150 50 118 C50 74 72 40 120 40 Z" fill="#3d444b"/>
  <!-- crown shading -->
  <path d="M120 40 C168 40 190 74 190 112 C176 96 150 88 120 88
           C90 88 64 96 50 112 C50 74 72 40 120 40 Z" fill="#2c3035"/>
  <circle cx="124.7" cy="81.0" r="0.8" fill="#2c3035" opacity="0.55"/><circle cx="159.2" cy="142.9" r="0.9" fill="#eceef0" opacity="0.55"/><circle cx="137.0" cy="144.0" r="1.4" fill="#2c3035" opacity="0.55"/><circle cx="179.1" cy="76.8" r="0.9" fill="#586069" opacity="0.55"/><circle cx="169.0" cy="128.4" r="1.5" fill="#eceef0" opacity="0.55"/><circle cx="176.7" cy="113.9" r="1.5" fill="#586069" opacity="0.55"/><circle cx="108.2" cy="77.4" r="1.5" fill="#eceef0" opacity="0.55"/><circle cx="151.6" cy="105.9" r="1.7" fill="#2c3035" opacity="0.55"/><circle cx="127.5" cy="142.3" r="1.6" fill="#eceef0" opacity="0.55"/><circle cx="75.5" cy="82.8" r="1.2" fill="#2c3035" opacity="0.55"/><circle cx="69.6" cy="76.9" r="1.2" fill="#586069" opacity="0.55"/><circle cx="109.2" cy="122.5" r="1.2" fill="#2c3035" opacity="0.55"/><circle cx="137.2" cy="97.5" r="1.2" fill="#eceef0" opacity="0.55"/><circle cx="163.5" cy="140.4" r="1.5" fill="#586069" opacity="0.55"/><circle cx="62.4" cy="114.0" r="0.9" fill="#eceef0" opacity="0.55"/><circle cx="91.4" cy="98.1" r="1.6" fill="#2c3035" opacity="0.55"/><circle cx="165.3" cy="70.3" r="1.0" fill="#586069" opacity="0.55"/><circle cx="121.5" cy="92.8" r="1.1" fill="#586069" opacity="0.55"/><circle cx="117.2" cy="139.1" r="2.0" fill="#2c3035" opacity="0.55"/><circle cx="95.9" cy="141.2" r="1.7" fill="#eceef0" opacity="0.55"/><circle cx="96.2" cy="128.1" r="1.9" fill="#eceef0" opacity="0.55"/><circle cx="104.8" cy="101.6" r="1.7" fill="#eceef0" opacity="0.55"/><circle cx="123.5" cy="83.9" r="1.7" fill="#586069" opacity="0.55"/><circle cx="152.7" cy="105.6" r="1.6" fill="#eceef0" opacity="0.55"/><circle cx="161.6" cy="120.3" r="1.9" fill="#2c3035" opacity="0.55"/><circle cx="64.4" cy="94.8" r="0.8" fill="#2c3035" opacity="0.55"/><circle cx="119.6" cy="131.5" r="1.1" fill="#2c3035" opacity="0.55"/><circle cx="76.6" cy="133.1" r="1.3" fill="#586069" opacity="0.55"/><circle cx="149.9" cy="84.9" r="0.8" fill="#eceef0" opacity="0.55"/><circle cx="129.3" cy="97.9" r="1.0" fill="#eceef0" opacity="0.55"/><circle cx="175.6" cy="60.8" r="1.1" fill="#eceef0" opacity="0.55"/><circle cx="151.2" cy="124.2" r="1.6" fill="#eceef0" opacity="0.55"/><circle cx="101.1" cy="98.1" r="1.4" fill="#586069" opacity="0.55"/><circle cx="102.7" cy="140.2" r="1.4" fill="#2c3035" opacity="0.55"/><circle cx="81.3" cy="76.8" r="1.4" fill="#586069" opacity="0.55"/><circle cx="83.3" cy="97.9" r="0.9" fill="#eceef0" opacity="0.55"/><circle cx="73.7" cy="69.3" r="1.5" fill="#586069" opacity="0.55"/><circle cx="166.9" cy="115.7" r="1.0" fill="#2c3035" opacity="0.55"/><circle cx="104.7" cy="102.9" r="1.0" fill="#eceef0" opacity="0.55"/><circle cx="78.0" cy="75.6" r="1.7" fill="#2c3035" opacity="0.55"/><circle cx="160.6" cy="67.9" r="1.0" fill="#586069" opacity="0.55"/><circle cx="98.6" cy="100.2" r="1.0" fill="#eceef0" opacity="0.55"/><circle cx="109.8" cy="80.9" r="1.7" fill="#eceef0" opacity="0.55"/><circle cx="148.6" cy="55.4" r="1.3" fill="#eceef0" opacity="0.55"/><circle cx="152.7" cy="65.8" r="1.2" fill="#586069" opacity="0.55"/><circle cx="110.2" cy="125.0" r="1.5" fill="#eceef0" opacity="0.55"/><circle cx="172.3" cy="61.8" r="0.9" fill="#2c3035" opacity="0.55"/><circle cx="114.3" cy="132.0" r="1.6" fill="#586069" opacity="0.55"/><circle cx="73.7" cy="111.1" r="1.1" fill="#2c3035" opacity="0.55"/><circle cx="153.3" cy="86.6" r="1.5" fill="#eceef0" opacity="0.55"/><circle cx="146.5" cy="124.4" r="1.6" fill="#eceef0" opacity="0.55"/><circle cx="67.6" cy="120.5" r="1.0" fill="#2c3035" opacity="0.55"/><circle cx="134.6" cy="61.5" r="1.2" fill="#586069" opacity="0.55"/><circle cx="94.0" cy="108.6" r="1.7" fill="#eceef0" opacity="0.55"/><circle cx="143.6" cy="139.7" r="1.0" fill="#2c3035" opacity="0.55"/><circle cx="161.4" cy="102.8" r="1.9" fill="#2c3035" opacity="0.55"/><circle cx="166.4" cy="143.3" r="2.0" fill="#eceef0" opacity="0.55"/><circle cx="95.5" cy="134.8" r="1.3" fill="#eceef0" opacity="0.55"/><circle cx="68.4" cy="114.4" r="1.4" fill="#586069" opacity="0.55"/><circle cx="122.7" cy="87.9" r="1.3" fill="#eceef0" opacity="0.55"/><circle cx="69.3" cy="110.9" r="1.6" fill="#eceef0" opacity="0.55"/><circle cx="60.6" cy="69.4" r="1.7" fill="#eceef0" opacity="0.55"/><circle cx="138.8" cy="101.4" r="1.7" fill="#586069" opacity="0.55"/><circle cx="176.3" cy="88.6" r="1.1" fill="#eceef0" opacity="0.55"/><circle cx="62.3" cy="113.5" r="0.9" fill="#586069" opacity="0.55"/><circle cx="120.1" cy="132.8" r="1.7" fill="#2c3035" opacity="0.55"/><circle cx="89.8" cy="140.1" r="1.0" fill="#586069" opacity="0.55"/><circle cx="133.3" cy="75.3" r="0.9" fill="#2c3035" opacity="0.55"/><circle cx="73.6" cy="102.9" r="1.9" fill="#586069" opacity="0.55"/><circle cx="65.7" cy="57.8" r="1.5" fill="#586069" opacity="0.55"/><circle cx="120.9" cy="144.2" r="1.0" fill="#eceef0" opacity="0.55"/><circle cx="155.8" cy="134.2" r="1.9" fill="#586069" opacity="0.55"/><circle cx="62.1" cy="73.7" r="1.4" fill="#586069" opacity="0.55"/><circle cx="154.6" cy="75.6" r="2.0" fill="#2c3035" opacity="0.55"/><circle cx="78.0" cy="74.1" r="1.5" fill="#2c3035" opacity="0.55"/><circle cx="83.8" cy="85.0" r="1.7" fill="#2c3035" opacity="0.55"/><circle cx="121.1" cy="104.6" r="1.1" fill="#586069" opacity="0.55"/><circle cx="132.2" cy="141.6" r="1.5" fill="#eceef0" opacity="0.55"/><circle cx="138.0" cy="57.3" r="1.4" fill="#586069" opacity="0.55"/><circle cx="145.1" cy="97.7" r="2.1" fill="#2c3035" opacity="0.55"/><circle cx="79.4" cy="122.6" r="1.2" fill="#eceef0" opacity="0.55"/><circle cx="136.0" cy="92.7" r="1.0" fill="#586069" opacity="0.55"/><circle cx="70.4" cy="116.7" r="1.4" fill="#586069" opacity="0.55"/><circle cx="124.0" cy="132.1" r="0.9" fill="#586069" opacity="0.55"/><circle cx="123.1" cy="65.8" r="1.0" fill="#586069" opacity="0.55"/><circle cx="62.2" cy="83.7" r="1.1" fill="#586069" opacity="0.55"/><circle cx="143.1" cy="138.1" r="2.0" fill="#eceef0" opacity="0.55"/><circle cx="91.8" cy="82.1" r="1.4" fill="#eceef0" opacity="0.55"/><circle cx="76.1" cy="62.1" r="1.8" fill="#586069" opacity="0.55"/><circle cx="75.2" cy="141.7" r="1.9" fill="#586069" opacity="0.55"/>
  <!-- eyebrows (bushy, signature) -->
  <path d="M70 104 Q86 84 108 100 Q90 100 78 112 Z" fill="#c9ced2"/>
  <path d="M170 104 Q154 84 132 100 Q150 100 162 112 Z" fill="#c9ced2"/>
  <!-- eyes -->
  <circle cx="94" cy="108" r="7.5" fill="#23282d"/>
  <circle cx="146" cy="108" r="7.5" fill="#23282d"/>
  <circle cx="96.4" cy="105.6" r="2.2" fill="#ffffff"/>
  <circle cx="148.4" cy="105.6" r="2.2" fill="#ffffff"/>
  <!-- muzzle bridge -->
  <path d="M104 120 L136 120 L132 150 L108 150 Z" fill="#586069"/>
  <!-- beard (signature) -->
  <path d="M78 140 Q120 132 162 140 Q170 186 150 210 Q120 226 90 210 Q70 186 78 140 Z" fill="#eceef0"/>
  <path d="M96 150 Q120 146 144 150 Q150 180 138 198 Q120 210 102 198 Q90 180 96 150 Z" fill="#586069" opacity="0.5"/>
  <circle cx="134.2" cy="153.5" r="1.6" fill="#3d444b" opacity="0.55"/><circle cx="130.2" cy="170.2" r="1.5" fill="#3d444b" opacity="0.55"/><circle cx="157.6" cy="175.4" r="1.8" fill="#2c3035" opacity="0.55"/><circle cx="156.9" cy="173.4" r="1.0" fill="#3d444b" opacity="0.55"/><circle cx="88.1" cy="152.5" r="1.2" fill="#2c3035" opacity="0.55"/><circle cx="131.6" cy="173.9" r="1.6" fill="#2c3035" opacity="0.55"/><circle cx="130.9" cy="182.4" r="0.8" fill="#3d444b" opacity="0.55"/><circle cx="120.4" cy="151.8" r="0.8" fill="#2c3035" opacity="0.55"/><circle cx="86.4" cy="182.8" r="0.8" fill="#2c3035" opacity="0.55"/><circle cx="122.1" cy="197.3" r="0.8" fill="#3d444b" opacity="0.55"/><circle cx="150.9" cy="161.1" r="1.7" fill="#3d444b" opacity="0.55"/><circle cx="120.8" cy="203.0" r="1.6" fill="#2c3035" opacity="0.55"/><circle cx="102.3" cy="160.2" r="1.0" fill="#2c3035" opacity="0.55"/><circle cx="129.2" cy="150.9" r="1.4" fill="#3d444b" opacity="0.55"/><circle cx="101.8" cy="162.3" r="1.4" fill="#3d444b" opacity="0.55"/><circle cx="107.6" cy="149.8" r="2.1" fill="#3d444b" opacity="0.55"/><circle cx="126.1" cy="185.7" r="1.7" fill="#2c3035" opacity="0.55"/><circle cx="118.0" cy="182.6" r="1.5" fill="#2c3035" opacity="0.55"/><circle cx="91.6" cy="154.7" r="1.0" fill="#3d444b" opacity="0.55"/><circle cx="108.9" cy="152.1" r="1.9" fill="#3d444b" opacity="0.55"/><circle cx="139.8" cy="172.1" r="1.2" fill="#3d444b" opacity="0.55"/><circle cx="88.1" cy="166.6" r="1.1" fill="#3d444b" opacity="0.55"/><circle cx="136.0" cy="201.8" r="1.7" fill="#2c3035" opacity="0.55"/><circle cx="139.9" cy="164.8" r="1.6" fill="#3d444b" opacity="0.55"/><circle cx="137.1" cy="198.7" r="1.6" fill="#2c3035" opacity="0.55"/><circle cx="126.2" cy="200.4" r="1.1" fill="#2c3035" opacity="0.55"/><circle cx="98.1" cy="207.5" r="1.9" fill="#2c3035" opacity="0.55"/><circle cx="156.3" cy="200.2" r="1.9" fill="#3d444b" opacity="0.55"/><circle cx="147.3" cy="177.2" r="0.9" fill="#2c3035" opacity="0.55"/><circle cx="128.1" cy="181.7" r="1.0" fill="#3d444b" opacity="0.55"/><circle cx="103.1" cy="167.1" r="1.4" fill="#3d444b" opacity="0.55"/><circle cx="138.3" cy="166.8" r="1.4" fill="#3d444b" opacity="0.55"/><circle cx="119.1" cy="204.3" r="1.0" fill="#2c3035" opacity="0.55"/><circle cx="133.8" cy="204.7" r="1.0" fill="#3d444b" opacity="0.55"/><circle cx="155.2" cy="198.2" r="1.0" fill="#3d444b" opacity="0.55"/><circle cx="102.4" cy="161.1" r="0.8" fill="#3d444b" opacity="0.55"/><circle cx="109.0" cy="148.2" r="1.8" fill="#2c3035" opacity="0.55"/><circle cx="149.3" cy="176.7" r="1.5" fill="#3d444b" opacity="0.55"/><circle cx="155.1" cy="161.6" r="1.1" fill="#3d444b" opacity="0.55"/><circle cx="113.6" cy="177.8" r="1.1" fill="#3d444b" opacity="0.55"/>
  <!-- nose -->
  <path d="M108 138 Q120 132 132 138 Q134 150 120 154 Q106 150 108 138 Z" fill="#1c1f23"/>
  <ellipse cx="114" cy="143" rx="2.4" ry="1.6" fill="#3a3f45"/>
  <ellipse cx="126" cy="143" rx="2.4" ry="1.6" fill="#3a3f45"/>
  <!-- mouth hint -->
  <path d="M120 154 L120 164 M120 164 Q110 170 102 166 M120 164 Q130 170 138 166" stroke="#23282d" stroke-width="1.6" fill="none" stroke-linecap="round" opacity="0.6"/>
</g></svg>