<svg xmlns="http://www.w3.org/2000/svg" viewBox="0 0 240 240" role="img" aria-label="Illustration of a salt and pepper Miniature Schnauzer"><title>Illustration of a salt and pepper Miniature Schnauzer</title><g>
  <!-- ears -->
  <path d="M52 60 L44 24 Q66 30 78 58 Z" fill="#5b636b"/>
  <path d="M188 60 L196 24 Q174 30 162 58 Z" fill="#5b636b"/>
  <path d="M55 58 L50 34 Q64 40 74 58 Z" fill="#7c858e"/>
  <path d="M185 58 L190 34 Q176 40 166 58 Z" fill="#7c858e"/>
  <!-- head -->
  <path d="M120 40 C168 40 190 74 190 118 C190 150 176 168 158 178
           L82 178 C64 168 50 150 50 118 C50 74 72 40 120 40 Z" fill="#7c858e"/>
  <!-- crown shading -->
  <path d="M120 40 C168 40 190 74 190 112 C176 96 150 88 120 88
           C90 88 64 96 50 112 C50 74 72 40 120 40 Z" fill="#5b636b"/>
  <circle cx="141.8" cy="63.2" r="1.6" fill="#5b636b" opacity="0.55"/><circle cx="160.1" cy="101.4" r="1.6" fill="#e9ecee" opacity="0.55"/><circle cx="112.5" cy="126.0" r="2.1" fill="#e9ecee" opacity="0.55"/><circle cx="132.1" cy="80.4" r="1.3" fill="#5b636b" opacity="0.55"/><circle cx="110.8" cy="68.0" r="1.8" fill="#a7afb6" opacity="0.55"/><circle cx="70.9" cy="61.8" r="1.2" fill="#e9ecee" opacity="0.55"/><circle cx="137.8" cy="93.9" r="1.6" fill="#e9ecee" opacity="0.55"/><circle cx="136.7" cy="106.6" r="0.8" fill="#5b636b" opacity="0.55"/><circle cx="134.3" cy="100.5" r="0.9" fill="#a7afb6" opacity="0.55"/><circle cx="138.7" cy="136.9" r="0.9" fill="#5b636b" opacity="0.55"/><circle cx="87.0" cy="84.2" r="1.5" fill="#a7afb6" opacity="0.55"/><circle cx="147.4" cy="135.7" r="1.1" fill="#5b636b" opacity="0.55"/><circle cx="97.4" cy="75.5" r="1.6" fill="#e9ecee" opacity="0.55"/><circle cx="135.0" cy="80.5" r="1.7" fill="#e9ecee" opacity="0.55"/><circle cx="77.2" cy="79.0" r="1.6" fill="#e9ecee" opacity="0.55"/><circle cx="113.9" cy="105.1" r="0.8" fill="#5b636b" opacity="0.55"/><circle cx="88.7" cy="94.9" r="1.0" fill="#e9ecee" opacity="0.55"/><circle cx="63.5" cy="144.9" r="0.9" fill="#a7afb6" opacity="0.55"/><circle cx="135.4" cy="114.2" r="1.9" fill="#e9ecee" opacity="0.55"/><circle cx="116.9" cy="106.9" r="1.5" fill="#e9ecee" opacity="0.55"/><circle cx="76.3" cy="65.1" r="1.0" fill="#5b636b" opacity="0.55"/><circle cx="122.5" cy="137.4" r="0.8" fill="#e9ecee" opacity="0.55"/><circle cx="68.2" cy="130.3" r="1.1" fill="#a7afb6" opacity="0.55"/><circle cx="108.2" cy="83.5" r="1.1" fill="#e9ecee" opacity="0.55"/><circle cx="65.6" cy="128.9" r="1.7" fill="#5b636b" opacity="0.55"/><circle cx="144.1" cy="86.2" r="1.5" fill="#5b636b" opacity="0.55"/><circle cx="64.9" cy="131.5" r="1.7" fill="#a7afb6" opacity="0.55"/><circle cx="146.4" cy="131.0" r="1.6" fill="#e9ecee" opacity="0.55"/><circle cx="129.6" cy="133.6" r="1.1" fill="#e9ecee" opacity="0.55"/><circle cx="86.4" cy="144.2" r="1.9" fill="#e9ecee" opacity="0.55"/><circle cx="175.8" cy="133.3" r="1.9" fill="#a7afb6" opacity="0.55"/><circle cx="162.0" cy="98.8" r="0.9" fill="#e9ecee" opacity="0.55"/><circle cx="132.4" cy="105.6" r="1.0" fill="#5b636b" opacity="0.55"/><circle cx="146.0" cy="80.5" r="1.2" fill="#e9ecee" opacity="0.55"/><circle cx="77.2" cy="58.9" r="1.8" fill="#e9ecee" opacity="0.55"/><circle cx="131.3" cy="62.9" r="1.8" fill="#a7afb6" opacity="0.55"/><circle cx="77.4" cy="88.2" r="2.0" fill="#a7afb6" opacity="0.55"/><circle cx="79.9" cy="76.0" r="1.2" fill="#a7afb6" opacity="0.55"/><circle cx="80.4" cy="128.9" r="1.8" fill="#e9ecee" opacity="0.55"/><circle cx="117.4" cy="63.9" r="2.1" fill="#e9ecee" opacity="0.55"/><circle cx="125.9" cy="140.3" r="1.0" fill="#5b636b" opacity="0.55"/><circle cx="117.3" cy="103.6" r="1.7" fill="#a7afb6" opacity="0.55"/><circle cx="174.0" cy="75.5" r="1.1" fill="#5b636b" opacity="0.55"/><circle cx="128.2" cy="92.6" r="1.4" fill="#e9ecee" opacity="0.55"/><circle cx="173.6" cy="130.0" r="1.6" fill="#e9ecee" opacity="0.55"/><circle cx="158.0" cy="125.8" r="1.1" fill="#a7afb6" opacity="0.55"/><circle cx="78.3" cy="99.5" r="1.4" fill="#a7afb6" opacity="0.55"/><circle cx="154.9" cy="65.2" r="1.0" fill="#5b636b" opacity="0.55"/><circle cx="61.0" cy="117.7" r="1.2" fill="#5b636b" opacity="0.55"/><circle cx="78.2" cy="67.1" r="1.6" fill="#5b636b" opacity="0.55"/><circle cx="116.6" cy="58.4" r="0.8" fill="#5b636b" opacity="0.55"/><circle cx="76.7" cy="102.2" r="1.1" fill="#e9ecee" opacity="0.55"/><circle cx="146.7" cy="77.8" r="1.8" fill="#a7afb6" opacity="0.55"/><circle cx="118.8" cy="80.6" r="1.8" fill="#e9ecee" opacity="0.55"/><circle cx="118.7" cy="135.9" r="1.4" fill="#e9ecee" opacity="0.55"/><circle cx="133.0" cy="107.8" r="0.9" fill="#5b636b" opacity="0.55"/><circle cx="133.7" cy="75.2" r="1.4" fill="#e9ecee" opacity="0.55"/><circle cx="138.4" cy="104.7" r="1.5" fill="#a7afb6" opacity="0.55"/><circle cx="80.2" cy="140.8" r="1.9" fill="#e9ecee" opacity="0.55"/><circle cx="103.4" cy="68.0" r="1.9" fill="#a7afb6" opacity="0.55"/><circle cx="142.6" cy="131.3" r="1.7" fill="#e9ecee" opacity="0.55"/><circle cx="143.9" cy="67.7" r="0.9" fill="#5b636b" opacity="0.55"/><circle cx="146.6" cy="142.6" r="1.9" fill="#a7afb6" opacity="0.55"/><circle cx="163.7" cy="134.7" r="1.9" fill="#5b636b" opacity="0.55"/><circle cx="66.2" cy="107.3" r="1.1" fill="#a7afb6" opacity="0.55"/><circle cx="132.4" cy="130.6" r="1.9" fill="#e9ecee" opacity="0.55"/><circle cx="101.6" cy="112.2" r="1.7" fill="#a7afb6" opacity="0.55"/><circle cx="146.6" cy="112.4" r="1.3" fill="#e9ecee" opacity="0.55"/><circle cx="115.7" cy="86.0" r="2.0" fill="#5b636b" opacity="0.55"/><circle cx="147.1" cy="128.5" r="1.8" fill="#e9ecee" opacity="0.55"/><circle cx="151.8" cy="73.0" r="1.5" fill="#e9ecee" opacity="0.55"/><circle cx="110.5" cy="135.7" r="1.3" fill="#5b636b" opacity="0.55"/><circle cx="140.5" cy="60.8" r="2.0" fill="#e9ecee" opacity="0.55"/><circle cx="125.5" cy="141.2" r="2.0" fill="#5b636b" opacity="0.55"/><circle cx="123.6" cy="70.1" r="1.6" fill="#a7afb6" opacity="0.55"/><circle cx="120.8" cy="70.6" r="1.7" fill="#a7afb6" opacity="0.55"/><circle cx="84.5" cy="105.5" r="1.2" fill="#e9ecee" opacity="0.55"/><circle cx="119.4" cy="70.6" r="1.6" fill="#e9ecee" opacity="0.55"/><circle cx="138.9" cy="84.3" r="1.2" fill="#a7afb6" opacity="0.55"/><circle cx="149.3" cy="102.1" r="1.5" fill="#e9ecee" opacity="0.55"/><circle cx="127.8" cy="126.1" r="1.0" fill="#e9ecee" opacity="0.55"/><circle cx="82.2" cy="141.1" r="1.1" fill="#a7afb6" opacity="0.55"/><circle cx="147.8" cy="61.1" r="2.1" fill="#e9ecee" opacity="0.55"/><circle cx="152.5" cy="65.7" r="2.0" fill="#a7afb6" opacity="0.55"/><circle cx="94.5" cy="83.5" r="1.6" fill="#e9ecee" opacity="0.55"/><circle cx="78.8" cy="142.3" r="1.5" fill="#e9ecee" opacity="0.55"/><circle cx="70.4" cy="77.0" r="0.9" fill="#e9ecee" opacity="0.55"/><circle cx="161.2" cy="79.4" r="1.9" fill="#5b636b" opacity="0.55"/><circle cx="104.3" cy="81.0" r="1.5" fill="#e9ecee" opacity="0.55"/><circle cx="91.1" cy="102.5" r="1.8" fill="#5b636b" opacity="0.55"/>
  <!-- eyebrows (bushy, signature) -->
  <path d="M70 104 Q86 84 108 100 Q90 100 78 112 Z" fill="#c3cace"/>
  <path d="M170 104 Q154 84 132 100 Q150 100 162 112 Z" fill="#c3cace"/>
  <!-- eyes -->
  <circle cx="94" cy="108" r="7.5" fill="#23282d"/>
  <circle cx="146" cy="108" r="7.5" fill="#23282d"/>
  <circle cx="96.4" cy="105.6" r="2.2" fill="#ffffff"/>
  <circle cx="148.4" cy="105.6" r="2.2" fill="#ffffff"/>
  <!-- muzzle bridge -->
  <path d="M104 120 L136 120 L132 150 L108 150 Z" fill="#a7afb6"/>
  <!-- beard (signature) -->
  <path d="M78 140 Q120 132 162 140 Q170 186 150 210 Q120 226 90 210 Q70 186 78 140 Z" fill="#e9ecee"/>
  <path d="M96 150 Q120 146 144 150 Q150 180 138 198 Q120 210 102 198 Q90 180 96 150 Z" fill="#a7afb6" opacity="0.5"/>
  <circle cx="112.9" cy="180.5" r="1.9" fill="#7c858e" opacity="0.55"/><circle cx="110.6" cy="165.4" r="1.1" fill="#7c858e" opacity="0.55"/><circle cx="88.8" cy="194.5" r="1.7" fill="#5b636b" opacity="0.55"/><circle cx="135.1" cy="170.7" r="1.3" fill="#5b636b" opacity="0.55"/><circle cx="108.9" cy="168.3" r="1.2" fill="#7c858e" opacity="0.55"/><circle cx="89.7" cy="152.2" r="0.9" fill="#5b636b" opacity="0.55"/><circle cx="89.4" cy="185.5" r="2.1" fill="#7c858e" opacity="0.55"/><circle cx="107.9" cy="153.7" r="1.4" fill="#7c858e" opacity="0.55"/><circle cx="95.7" cy="163.5" r="1.1" fill="#7c858e" opacity="0.55"/><circle cx="84.4" cy="205.6" r="1.7" fill="#7c858e" opacity="0.55"/><circle cx="138.6" cy="189.7" r="1.9" fill="#5b636b" opacity="0.55"/><circle cx="109.8" cy="176.3" r="1.4" fill="#7c858e" opacity="0.55"/><circle cx="99.2" cy="175.3" r="1.8" fill="#5b636b" opacity="0.55"/><circle cx="129.1" cy="206.4" r="1.8" fill="#5b636b" opacity="0.55"/><circle cx="93.3" cy="161.4" r="0.8" fill="#5b636b" opacity="0.55"/><circle cx="158.6" cy="169.4" r="1.1" fill="#7c858e" opacity="0.55"/><circle cx="109.2" cy="154.7" r="1.1" fill="#7c858e" opacity="0.55"/><circle cx="158.9" cy="193.6" r="1.7" fill="#5b636b" opacity="0.55"/><circle cx="90.6" cy="158.8" r="1.6" fill="#7c858e" opacity="0.55"/><circle cx="129.3" cy="165.6" r="1.6" fill="#5b636b" opacity="0.55"/><circle cx="86.8" cy="174.1" r="1.0" fill="#7c858e" opacity="0.55"/><circle cx="147.9" cy="206.7" r="0.9" fill="#5b636b" opacity="0.55"/><circle cx="156.0" cy="163.8" r="0.9" fill="#5b636b" opacity="0.55"/><circle cx="123.6" cy="177.3" r="1.2" fill="#5b636b" opacity="0.55"/><circle cx="112.3" cy="166.1" r="1.9" fill="#5b636b" opacity="0.55"/><circle cx="86.7" cy="163.1" r="2.0" fill="#7c858e" opacity="0.55"/><circle cx="86.8" cy="174.5" r="1.6" fill="#5b636b" opacity="0.55"/><circle cx="87.6" cy="202.1" r="1.8" fill="#5b636b" opacity="0.55"/><circle cx="139.2" cy="178.2" r="1.3" fill="#7c858e" opacity="0.55"/><circle cx="135.7" cy="181.6" r="0.9" fill="#5b636b" opacity="0.55"/><circle cx="148.4" cy="189.5" r="2.1" fill="#5b636b" opacity="0.55"/><circle cx="100.5" cy="161.9" r="1.6" fill="#7c858e" opacity="0.55"/><circle cx="105.9" cy="167.5" r="1.4" fill="#7c858e" opacity="0.55"/><circle cx="87.2" cy="202.7" r="2.0" fill="#5b636b" opacity="0.55"/><circle cx="110.8" cy="205.8" r="1.8" fill="#5b636b" opacity="0.55"/><circle cx="98.1" cy="157.4" r="1.0" fill="#7c858e" opacity="0.55"/><circle cx="107.0" cy="148.8" r="1.7" fill="#7c858e" opacity="0.55"/><circle cx="94.0" cy="180.6" r="0.9" fill="#7c858e" opacity="0.55"/><circle cx="111.5" cy="178.1" r="1.6" fill="#5b636b" opacity="0.55"/><circle cx="112.4" cy="164.9" r="1.9" fill="#7c858e" opacity="0.55"/>
  <!-- nose -->
  <path d="M108 138 Q120 132 132 138 Q134 150 120 154 Q106 150 108 138 Z" fill="#1c1f23"/>
  <ellipse cx="114" cy="143" rx="2.4" ry="1.6" fill="#3a3f45"/>
  <ellipse cx="126" cy="143" rx="2.4" ry="1.6" fill="#3a3f45"/>
  <!-- mouth hint -->
  <path d="M120 154 L120 164 M120 164 Q110 170 102 166 M120 164 Q130 170 138 166" stroke="#23282d" stroke-width="1.6" fill="none" stroke-linecap="round" opacity="0.6"/>
</g></svg>